<svg width="18" height="19" viewBox="0 0 18 19" fill="none" xmlns="http://www.w3.org/2000/svg">
<path d="M3.65163 8.61958C5.08323 11.4331 7.38971 13.7296 10.2032 15.1712L12.3904 12.984C12.6588 12.7156 13.0565 12.6261 13.4044 12.7454C14.5179 13.1132 15.7208 13.3121 16.9536 13.3121C17.5004 13.3121 17.9478 13.7594 17.9478 14.3062V17.7759C17.9478 18.3227 17.5004 18.7701 16.9536 18.7701C7.61836 18.7701 0.0527344 11.2044 0.0527344 1.86917C0.0527344 1.32238 0.500111 0.875 1.0469 0.875H4.5265C5.07329 0.875 5.52067 1.32238 5.52067 1.86917C5.52067 3.11188 5.7195 4.30489 6.08734 5.41835C6.1967 5.76631 6.11717 6.15404 5.8388 6.43241L3.65163 8.61958Z" fill="#F90000"/>
</svg>
