<svg width="231" height="43" viewBox="0 0 231 43" fill="none" xmlns="http://www.w3.org/2000/svg">
<path d="M59.2464 15.7706H62.8846V28.4707H59.2464V15.7706ZM54.2853 28.4707H50.6471V15.7706H54.2853V28.4707ZM59.5037 23.5176H54.0281V20.5422H59.5037V23.5176ZM68.8087 20.6874H74.7805V23.3725H68.8087V20.6874ZM69.066 25.6948H75.7911V28.4707H65.4646V15.7706H75.5522V18.5464H69.066V25.6948ZM76.651 27.491L77.7351 24.9691C78.2864 25.2473 78.8622 25.4589 79.4623 25.6041C80.0627 25.7492 80.6445 25.8339 81.2079 25.8581C81.7716 25.8823 82.2798 25.846 82.733 25.7492C83.1986 25.6403 83.5661 25.4771 83.8355 25.2593C84.1052 25.0416 84.2397 24.7575 84.2397 24.4066C84.2397 24.0196 84.0743 23.7415 83.7435 23.5721C83.4254 23.3906 83.0028 23.2999 82.4757 23.2999H79.1866V20.6692H82.1817C82.672 20.6692 83.0516 20.5724 83.3209 20.379C83.5907 20.1854 83.7252 19.9254 83.7252 19.5987C83.7252 19.2843 83.6091 19.0363 83.3761 18.8549C83.1434 18.6614 82.8311 18.5283 82.439 18.4557C82.0472 18.3711 81.6062 18.3409 81.116 18.365C80.6262 18.3893 80.1179 18.48 79.5909 18.6371C79.0643 18.7823 78.556 18.9819 78.0658 19.2359L77 16.5507C77.8699 16.1273 78.7825 15.837 79.7379 15.6799C80.6933 15.5226 81.6246 15.4863 82.5308 15.571C83.4374 15.6556 84.258 15.8552 84.9931 16.1697C85.728 16.4722 86.3101 16.8773 86.7386 17.3853C87.1797 17.8933 87.4002 18.492 87.4002 19.1814C87.4002 19.7863 87.2347 20.3245 86.904 20.7962C86.5732 21.268 86.1264 21.6368 85.5627 21.9029C84.9993 22.169 84.3499 22.3021 83.6149 22.3021L83.7068 21.5401C84.5521 21.5401 85.287 21.6852 85.9118 21.9755C86.5491 22.2658 87.0389 22.6649 87.3817 23.1729C87.7371 23.6689 87.9146 24.2434 87.9146 24.8965C87.9146 25.5133 87.7492 26.0637 87.4185 26.5475C87.1002 27.0193 86.6531 27.4184 86.0771 27.745C85.5017 28.0716 84.8402 28.3134 84.0927 28.4707C83.3577 28.64 82.5676 28.7186 81.7224 28.7066C80.8771 28.7066 80.0197 28.6037 79.1499 28.3981C78.2925 28.1924 77.4595 27.8901 76.651 27.491ZM88.412 28.4707L94.0897 15.7706H97.6727L103.369 28.4707H99.5837L95.1371 17.5304H96.5703L92.1236 28.4707H88.412ZM91.5173 26.0032L92.4544 23.3544H98.7385L99.6755 26.0032H91.5173ZM104.659 28.4707V15.7706H110.906C112.45 15.7706 113.644 16.0609 114.49 16.6414C115.348 17.21 115.776 18.0203 115.776 19.0726C115.776 20.1007 115.378 20.9111 114.581 21.5038C113.785 22.0844 112.72 22.3747 111.385 22.3747L111.752 21.5219C113.197 21.5219 114.325 21.8061 115.133 22.3747C115.954 22.931 116.364 23.7535 116.364 24.8421C116.364 25.9549 115.923 26.8379 115.041 27.491C114.17 28.1441 112.91 28.4707 111.256 28.4707H104.659ZM108.242 25.8943H111.109C111.635 25.8943 112.028 25.7855 112.285 25.5678C112.554 25.338 112.688 25.0053 112.688 24.5699C112.688 24.1345 112.554 23.8141 112.285 23.6084C112.028 23.3906 111.635 23.2818 111.109 23.2818H108.242V25.8943ZM108.242 20.8507H110.558C111.072 20.8507 111.458 20.7478 111.715 20.5422C111.973 20.3245 112.1 20.01 112.1 19.5987C112.1 19.1876 111.973 18.8791 111.715 18.6734C111.458 18.4557 111.072 18.3469 110.558 18.3469H108.242V20.8507ZM118.149 28.4707V15.7706H121.731V23.2274L127.042 15.7706H130.46V28.4707H126.877V21.0321L121.584 28.4707H118.149ZM139.303 28.7247C138.286 28.7247 137.344 28.5674 136.474 28.253C135.616 27.9264 134.869 27.4667 134.233 26.8742C133.608 26.2815 133.117 25.5859 132.763 24.7876C132.407 23.9773 132.229 23.0882 132.229 22.1207C132.229 21.153 132.407 20.2701 132.763 19.4717C133.117 18.6614 133.608 17.9599 134.233 17.3672C134.869 16.7745 135.616 16.3209 136.474 16.0065C137.344 15.6799 138.286 15.5166 139.303 15.5166C140.492 15.5166 141.552 15.7222 142.482 16.1335C143.425 16.5447 144.21 17.1374 144.834 17.9114L142.52 19.9798C142.102 19.496 141.643 19.127 141.141 18.873C140.65 18.619 140.1 18.492 139.488 18.492C138.961 18.492 138.477 18.5767 138.036 18.746C137.595 18.9154 137.215 19.1633 136.897 19.4899C136.591 19.8044 136.345 20.1854 136.162 20.633C135.99 21.0804 135.904 21.5764 135.904 22.1207C135.904 22.6649 135.99 23.1608 136.162 23.6084C136.345 24.0559 136.591 24.4429 136.897 24.7695C137.215 25.084 137.595 25.3259 138.036 25.4952C138.477 25.6646 138.961 25.7492 139.488 25.7492C140.1 25.7492 140.65 25.6222 141.141 25.3682C141.643 25.1142 142.102 24.7453 142.52 24.2615L144.834 26.3298C144.21 27.0919 143.425 27.6845 142.482 28.1079C141.552 28.519 140.492 28.7247 139.303 28.7247ZM146.294 28.4707V15.7706H149.877V23.2274L155.188 15.7706H158.605V28.4707H155.022V21.0321L149.73 28.4707H146.294ZM161.184 28.4707V15.7706H164.178L169.488 24.4066H167.909L173.108 15.7706H176.104L176.14 28.4707H172.778L172.76 20.7962H173.329L169.452 27.2189H167.835L163.848 20.7962H164.527V28.4707H161.184ZM185.013 28.7247C183.984 28.7247 183.035 28.5614 182.166 28.2349C181.295 27.9083 180.535 27.4486 179.887 26.856C179.25 26.2512 178.753 25.5496 178.399 24.7513C178.043 23.9531 177.865 23.0762 177.865 22.1207C177.865 21.1651 178.043 20.2882 178.399 19.4899C178.753 18.6916 179.25 17.9961 179.887 17.4034C180.535 16.7987 181.295 16.333 182.166 16.0065C183.035 15.6799 183.984 15.5166 185.013 15.5166C186.054 15.5166 187.004 15.6799 187.862 16.0065C188.732 16.333 189.485 16.7987 190.121 17.4034C190.758 17.9961 191.255 18.6916 191.609 19.4899C191.977 20.2882 192.161 21.1651 192.161 22.1207C192.161 23.0762 191.977 23.9592 191.609 24.7695C191.255 25.5678 190.758 26.2633 190.121 26.856C189.485 27.4486 188.732 27.9083 187.862 28.2349C187.004 28.5614 186.054 28.7247 185.013 28.7247ZM185.013 25.7492C185.503 25.7492 185.957 25.6646 186.372 25.4952C186.801 25.3259 187.169 25.084 187.475 24.7695C187.794 24.4429 188.039 24.0559 188.21 23.6084C188.394 23.1608 188.486 22.6649 188.486 22.1207C188.486 21.5642 188.394 21.0684 188.21 20.633C188.039 20.1854 187.794 19.8044 187.475 19.4899C187.169 19.1633 186.801 18.9154 186.372 18.746C185.957 18.5767 185.503 18.492 185.013 18.492C184.523 18.492 184.064 18.5767 183.635 18.746C183.219 18.9154 182.851 19.1633 182.532 19.4899C182.226 19.8044 181.981 20.1854 181.798 20.633C181.626 21.0684 181.54 21.5642 181.54 22.1207C181.54 22.6649 181.626 23.1608 181.798 23.6084C181.981 24.0559 182.226 24.4429 182.532 24.7695C182.851 25.084 183.219 25.3259 183.635 25.4952C184.064 25.6646 184.523 25.7492 185.013 25.7492ZM200.188 28.7247C199.171 28.7247 198.229 28.5674 197.358 28.253C196.501 27.9264 195.754 27.4667 195.116 26.8742C194.492 26.2815 194.002 25.5859 193.647 24.7876C193.292 23.9773 193.113 23.0882 193.113 22.1207C193.113 21.153 193.292 20.2701 193.647 19.4717C194.002 18.6614 194.492 17.9599 195.116 17.3672C195.754 16.7745 196.501 16.3209 197.358 16.0065C198.229 15.6799 199.171 15.5166 200.188 15.5166C201.376 15.5166 202.436 15.7222 203.367 16.1335C204.31 16.5447 205.093 17.1374 205.719 17.9114L203.404 19.9798C202.987 19.496 202.528 19.127 202.025 18.873C201.535 18.619 200.984 18.492 200.372 18.492C199.846 18.492 199.361 18.5767 198.92 18.746C198.479 18.9154 198.1 19.1633 197.78 19.4899C197.474 19.8044 197.23 20.1854 197.046 20.633C196.874 21.0804 196.789 21.5764 196.789 22.1207C196.789 22.6649 196.874 23.1608 197.046 23.6084C197.23 24.0559 197.474 24.4429 197.78 24.7695C198.1 25.084 198.479 25.3259 198.92 25.4952C199.361 25.6646 199.846 25.7492 200.372 25.7492C200.984 25.7492 201.535 25.6222 202.025 25.3682C202.528 25.1142 202.987 24.7453 203.404 24.2615L205.719 26.3298C205.093 27.0919 204.31 27.6845 203.367 28.1079C202.436 28.519 201.376 28.7247 200.188 28.7247ZM209.919 28.4707V17.8207L210.728 18.619H205.968V15.7706H217.434V18.619H212.693L213.502 17.8207V28.4707H209.919ZM225.487 19.8164C227.056 19.8164 228.268 20.1612 229.126 20.8507C229.995 21.5401 230.43 22.5742 230.43 23.9531C230.43 25.4408 229.946 26.5656 228.979 27.3277C228.01 28.0897 226.687 28.4707 225.01 28.4707H218.927V15.7706H222.511V19.8164H225.487ZM224.771 25.8943C225.383 25.8943 225.867 25.7311 226.222 25.4045C226.59 25.0779 226.774 24.6183 226.774 24.0256C226.774 23.4209 226.59 22.9975 226.222 22.7557C225.867 22.5017 225.383 22.3747 224.771 22.3747H222.511V25.8943H224.771Z" fill="#0F0F0F"/>
<path d="M39.262 21.3236C39.262 11.6211 31.315 3.88014 21.6705 3.88014C12.026 3.88014 4.07894 11.6211 4.07891 21.3236C4.07891 31.0261 12.026 38.7672 21.6705 38.7672C31.315 38.7672 39.262 31.0261 39.262 21.3236ZM43.3409 21.3236C43.3409 33.0315 33.7097 42.6473 21.6705 42.6473C9.63125 42.6473 0 33.0315 0 21.3236C3.28871e-05 9.61572 9.63128 9.30181e-06 21.6705 0C33.7097 0 43.3409 9.61572 43.3409 21.3236Z" fill="#F90000"/>
<path fill-rule="evenodd" clip-rule="evenodd" d="M30.9085 10.25C31.3597 10.257 31.4818 10.3876 31.4827 10.8555C31.4858 12.5196 31.4855 14.1836 31.4866 15.8809V31.9756C31.4531 32.0013 31.4196 32.0272 31.386 32.0528C31.3556 31.9858 31.3361 31.9096 31.2923 31.8535C30.0824 30.3033 28.8642 28.7592 27.6663 27.1992C27.5337 27.0266 27.4546 26.7617 27.4534 26.5391C27.4475 25.377 27.4451 24.2149 27.4417 23.0528H16.2562V27.9131C16.3637 27.9208 16.457 27.9335 16.5501 27.9336C17.2932 27.935 18.0367 27.9383 18.7796 27.9307C19.0842 27.9276 19.217 28.0641 19.2161 28.3701C19.2129 29.555 19.2191 30.74 19.2152 31.9248C19.2139 32.2811 19.0954 32.3991 18.7366 32.3994C16.7591 32.4008 14.7815 32.3989 12.804 32.3926C12.3715 32.3912 12.2093 32.2138 12.2073 31.7451C12.2029 30.6156 12.2072 29.4859 12.2073 28.3565C12.2077 24.4808 12.208 20.6051 12.2083 16.6963V10.6895C12.2417 10.6577 12.2746 10.6255 12.3079 10.5938C12.3403 10.6711 12.3582 10.7604 12.4075 10.8242C13.623 12.3903 14.8473 13.9499 16.053 15.5235C16.1741 15.6817 16.2457 15.9224 16.2464 16.125C16.2496 17.1649 16.2508 18.2052 16.2523 19.2451H27.431C27.4287 17.9159 27.4273 16.5861 27.4251 15.2569C27.4247 15.0702 27.4251 14.8831 27.4251 14.6358C27.2028 14.6358 27.0018 14.6354 26.8011 14.6358C26.1733 14.637 25.5451 14.6405 24.9173 14.6397C24.5473 14.6392 24.4788 14.572 24.4778 14.1934C24.4751 13.0729 24.4756 11.9524 24.4778 10.8321C24.4789 10.363 24.5926 10.2486 25.0609 10.2481C26.5335 10.2465 28.0063 10.2478 29.4788 10.2481C29.9552 10.2482 30.4323 10.2425 30.9085 10.25Z" fill="#F90000"/>
</svg>
