<svg width="31" height="31" viewBox="0 0 31 31" fill="none" xmlns="http://www.w3.org/2000/svg">
<path fill-rule="evenodd" clip-rule="evenodd" d="M7.48116 7.48492C6.76141 8.20467 6.19048 9.05913 5.80095 9.99953C5.41142 10.9399 5.21094 11.9478 5.21094 12.9657C5.21094 13.9836 5.41142 14.9915 5.80095 15.9319C6.19048 16.8724 6.76141 17.7268 7.48116 18.4465C8.20091 19.1662 9.05537 19.7372 9.99578 20.1267C10.9362 20.5163 11.9441 20.7168 12.962 20.7168C13.9799 20.7168 14.9878 20.5163 15.9281 20.1267C16.8686 19.7372 17.723 19.1662 18.4427 18.4465C19.8545 16.9849 20.6357 15.0272 20.618 12.9952C20.6003 10.9631 19.7853 9.01934 18.3483 7.58243C16.9115 6.14552 14.9676 5.33045 12.9356 5.31279C10.9036 5.29513 8.94593 6.07629 7.48426 7.48802M17.3484 17.3522C16.7751 17.9384 16.0911 18.4052 15.3361 18.7252C14.5812 19.0453 13.7701 19.2124 12.9502 19.217C12.1301 19.2215 11.3173 19.0633 10.5589 18.7516C9.80043 18.4398 9.11135 17.9807 8.53154 17.4008C7.95174 16.8209 7.49274 16.1318 7.18112 15.3732C6.86949 14.6147 6.71143 13.8019 6.71609 12.9819C6.72076 12.1618 6.88805 11.3508 7.20827 10.596C7.5285 9.84105 7.99531 9.15714 8.58166 8.58387C9.74883 7.44273 11.3189 6.80792 12.9512 6.8172C14.5836 6.82648 16.1463 7.47909 17.3004 8.63343C18.4545 9.78776 19.1069 11.3506 19.1159 12.983C19.1249 14.6152 18.4898 16.1853 17.3484 17.3522Z" fill="#F90000"/>
<path d="M17.3482 19.568C17.0576 19.2772 16.8943 18.8828 16.8945 18.4717C16.8946 18.0605 17.0581 17.6662 17.349 17.3755C17.6398 17.0849 18.0342 16.9217 18.4454 16.9219C18.8565 16.922 19.2508 17.0855 19.5414 17.3763L23.9248 21.7613C24.0729 21.9043 24.191 22.0753 24.2722 22.2644C24.3534 22.4535 24.3962 22.6569 24.398 22.8627C24.3997 23.0686 24.3606 23.2726 24.2827 23.4631C24.2046 23.6536 24.0896 23.8266 23.944 23.9722C23.7985 24.1177 23.6255 24.2328 23.435 24.3107C23.2445 24.3886 23.0404 24.4279 22.8345 24.4261C22.6288 24.4243 22.4253 24.3816 22.2362 24.3003C22.0471 24.2191 21.8761 24.1011 21.7331 23.953L17.3482 19.568Z" fill="#F90000"/>
</svg>
