<svg width="25" height="25" viewBox="0 0 25 25" fill="none" xmlns="http://www.w3.org/2000/svg">
<path fill-rule="evenodd" clip-rule="evenodd" d="M12.5 0C19.4037 0 25 5.59625 25 12.5C25 19.4037 19.4037 25 12.5 25C5.59625 25 0 19.4037 0 12.5C0 5.59625 5.59625 0 12.5 0ZM10.6625 16.4962L9.72875 17.8962C9.3325 18.4912 9.10125 19.6013 9.97375 20.3638C10.4925 20.8175 11.3175 21.2512 12.5 21.2512C13.6825 21.2512 14.5075 20.8175 15.0262 20.3638C15.8987 19.6013 15.6675 18.4913 15.2713 17.8975L14.3375 16.4962C14.1358 16.1938 13.8625 15.9459 13.542 15.7744C13.2214 15.6029 12.8635 15.5131 12.5 15.5131C12.1365 15.5131 11.7786 15.6029 11.458 15.7744C11.1375 15.9459 10.8642 16.1938 10.6625 16.4962ZM18.49 11.5325L16.8687 11.9875C16.5188 12.0858 16.1984 12.269 15.9362 12.5208C15.674 12.7727 15.478 13.0853 15.3656 13.431C15.2532 13.7768 15.2279 14.1449 15.2919 14.5028C15.3559 14.8606 15.5072 15.1972 15.7325 15.4825L16.7762 16.8037C17.2187 17.3637 18.2037 17.9287 19.1987 17.3337C19.79 16.98 20.4575 16.33 20.8238 15.205C21.1888 14.08 21.0312 13.1613 20.76 12.5275C20.305 11.4613 19.1762 11.3387 18.49 11.5325ZM6.51 11.5325C5.8225 11.3387 4.695 11.4613 4.24 12.5275C3.96875 13.1613 3.81125 14.0787 4.1775 15.205C4.5425 16.33 5.20875 16.98 5.8025 17.3337C6.7375 17.8925 7.665 17.4263 8.14 16.9025L8.22375 16.8037L9.2675 15.4825C9.48347 15.2091 9.6317 14.8885 9.70008 14.5468C9.76846 14.2052 9.75505 13.8522 9.66095 13.5168C9.56684 13.1813 9.39471 12.8729 9.15862 12.6166C8.92252 12.3604 8.62916 12.1637 8.3025 12.0425L8.13125 11.9875L6.51 11.5325ZM7.35625 5.42C6.39875 6.115 5.9875 6.95 5.83375 7.62375C5.57625 8.7525 6.41625 9.515 7.085 9.7625L8.665 10.3475C9.00592 10.4735 9.37265 10.5134 9.73268 10.4636C10.0927 10.4139 10.4349 10.2761 10.7289 10.0625C11.0229 9.84881 11.2597 9.56591 11.4182 9.23885C11.5767 8.91178 11.652 8.55066 11.6375 8.1875L11.57 6.50375C11.5412 5.79125 11.0762 4.75625 9.9225 4.65375C9.235 4.59125 8.3125 4.725 7.35625 5.42ZM17.6437 5.42C16.6875 4.725 15.765 4.59125 15.0787 4.6525C13.9912 4.75 13.5162 5.6725 13.44 6.375L13.43 6.50375L13.3625 8.1875C13.3487 8.53603 13.4177 8.88287 13.5637 9.19963C13.7098 9.51638 13.9288 9.79405 14.2028 10.0099C14.4768 10.2257 14.798 10.3736 15.1401 10.4414C15.4823 10.5092 15.8356 10.495 16.1713 10.4L16.335 10.3475L17.915 9.7625C18.5838 9.515 19.4238 8.7525 19.1663 7.6225C19.0138 6.95 18.6012 6.115 17.6437 5.42Z" fill="#F90000"/>
</svg>
