<svg width="28" height="20" viewBox="0 0 28 20" fill="none" xmlns="http://www.w3.org/2000/svg">
<path d="M15.5 7.75C15.5 8.77775 15.0917 9.76335 14.365 10.49C13.6383 11.2167 12.6528 11.625 11.625 11.625C10.5972 11.625 9.61165 11.2167 8.88491 10.49C8.15826 9.76335 7.75 8.77775 7.75 7.75C7.75 6.72225 8.15826 5.73665 8.88491 5.00991C9.61165 4.28326 10.5972 3.875 11.625 3.875C12.6528 3.875 13.6383 4.28326 14.365 5.00991C15.0917 5.73665 15.5 6.72225 15.5 7.75ZM13.5625 7.75C13.5625 7.23612 13.3584 6.74333 12.995 6.38001C12.6317 6.01658 12.1389 5.8125 11.625 5.8125C11.1111 5.8125 10.6183 6.01658 10.255 6.38001C9.89158 6.74333 9.6875 7.23612 9.6875 7.75C9.6875 8.26388 9.89158 8.75667 10.255 9.11999C10.6183 9.48342 11.1111 9.6875 11.625 9.6875C12.1389 9.6875 12.6317 9.48342 12.995 9.11999C13.3584 8.75667 13.5625 8.26388 13.5625 7.75ZM0 2.42187C0 1.085 1.085 0 2.42187 0H20.8281C22.165 0 23.25 1.085 23.25 2.42187V13.0781C23.25 14.415 22.165 15.5 20.8281 15.5H2.42187C1.085 15.5 0 14.415 0 13.0781V2.42187ZM2.42187 1.9375C2.29341 1.9375 2.17021 1.98854 2.07937 2.07937C1.98854 2.17021 1.9375 2.29341 1.9375 2.42187V3.875H2.90625C3.16318 3.875 3.40959 3.77294 3.59126 3.59126C3.77294 3.40959 3.875 3.16318 3.875 2.90625V1.9375H2.42187ZM1.9375 13.0781C1.9375 13.3455 2.1545 13.5625 2.42187 13.5625H3.875V12.5937C3.875 12.3369 3.77294 12.0904 3.59126 11.9088C3.40959 11.7271 3.16318 11.625 2.90625 11.625H1.9375V13.0781ZM5.8125 12.5937V13.5625H17.4375V12.5937C17.4375 11.823 17.7437 11.0837 18.2888 10.5388C18.8337 9.99368 19.573 9.6875 20.3437 9.6875H21.3125V5.8125H20.3437C19.573 5.8125 18.8337 5.50632 18.2888 4.96124C17.7437 4.41625 17.4375 3.67703 17.4375 2.90625V1.9375H5.8125V2.90625C5.8125 3.67703 5.5063 4.41625 4.96128 4.96124C4.41625 5.50632 3.67703 5.8125 2.90625 5.8125H1.9375V9.6875H2.90625C3.67703 9.6875 4.41625 9.99368 4.96128 10.5388C5.5063 11.0837 5.8125 11.823 5.8125 12.5937ZM19.375 13.5625H20.8281C20.9566 13.5625 21.0798 13.5115 21.1706 13.4206C21.2615 13.3298 21.3125 13.2066 21.3125 13.0781V11.625H20.3437C20.0869 11.625 19.8404 11.7271 19.6588 11.9088C19.4771 12.0904 19.375 12.3369 19.375 12.5937V13.5625ZM21.3125 3.875V2.42187C21.3125 2.29341 21.2615 2.17021 21.1706 2.07937C21.0798 1.98854 20.9566 1.9375 20.8281 1.9375H19.375V2.90625C19.375 3.16318 19.4771 3.40959 19.6588 3.59126C19.8404 3.77294 20.0869 3.875 20.3437 3.875H21.3125ZM6.78125 19.375C6.16749 19.3752 5.56941 19.1811 5.07274 18.8205C4.57606 18.46 4.2063 17.9514 4.01643 17.3678C4.2851 17.4143 4.56087 17.4375 4.84375 17.4375H20.8281C21.9843 17.4375 23.0931 16.9782 23.9107 16.1607C24.7282 15.3431 25.1875 14.2343 25.1875 13.0781V4.03969C25.7544 4.24011 26.2451 4.61146 26.5921 5.10239C26.9391 5.59343 27.1253 6.17995 27.125 6.78125V13.0781C27.125 13.905 26.9621 14.7239 26.6456 15.4878C26.3292 16.2519 25.8654 16.9459 25.2807 17.5307C24.6959 18.1154 24.0019 18.5792 23.2378 18.8956C22.4739 19.2121 21.655 19.375 20.8281 19.375H6.78125Z" fill="#F90000"/>
</svg>
