<svg width="23" height="20" viewBox="0 0 23 20" fill="none" xmlns="http://www.w3.org/2000/svg">
<path d="M2.5 7.5L4.375 1.875H18.125L20 7.5M18.125 13.75C17.6277 13.75 17.1508 13.5525 16.7992 13.2008C16.4475 12.8492 16.25 12.3723 16.25 11.875C16.25 11.3777 16.4475 10.9008 16.7992 10.5492C17.1508 10.1975 17.6277 10 18.125 10C18.6223 10 19.0992 10.1975 19.4508 10.5492C19.8025 10.9008 20 11.3777 20 11.875C20 12.3723 19.8025 12.8492 19.4508 13.2008C19.0992 13.5525 18.6223 13.75 18.125 13.75ZM4.375 13.75C3.87772 13.75 3.40081 13.5525 3.04917 13.2008C2.69754 12.8492 2.5 12.3723 2.5 11.875C2.5 11.3777 2.69754 10.9008 3.04917 10.5492C3.40081 10.1975 3.87772 10 4.375 10C4.87228 10 5.34919 10.1975 5.70083 10.5492C6.05246 10.9008 6.25 11.3777 6.25 11.875C6.25 12.3723 6.05246 12.8492 5.70083 13.2008C5.34919 13.5525 4.87228 13.75 4.375 13.75ZM19.9 1.25C19.65 0.525 18.95 0 18.125 0H4.375C3.55 0 2.85 0.525 2.6 1.25L0 8.75V18.75C0 19.0815 0.131696 19.3995 0.366116 19.6339C0.600537 19.8683 0.918479 20 1.25 20H2.5C2.83152 20 3.14946 19.8683 3.38388 19.6339C3.6183 19.3995 3.75 19.0815 3.75 18.75V17.5H18.75V18.75C18.75 19.0815 18.8817 19.3995 19.1161 19.6339C19.3505 19.8683 19.6685 20 20 20H21.25C21.5815 20 21.8995 19.8683 22.1339 19.6339C22.3683 19.3995 22.5 19.0815 22.5 18.75V8.75L19.9 1.25Z" fill="#F90000"/>
</svg>
