<svg width="150" height="61" viewBox="0 0 150 61" fill="none" xmlns="http://www.w3.org/2000/svg">
<path d="M88.9759 43.5198H84.3609C83.4127 43.5198 82.536 43.0142 82.0627 42.1937L75.9156 31.5473L71.7721 24.372L71.7551 24.3397C71.7228 24.2784 71.687 24.2188 71.6496 24.1609C71.6053 24.0911 71.561 24.023 71.5134 23.9566C71.498 23.9328 71.481 23.9107 71.4623 23.8868C70.875 23.0884 70.0528 22.5897 69.171 22.3905C69.1471 22.3837 69.1216 22.3786 69.0978 22.3735C69.0705 22.3666 69.0399 22.3615 69.0109 22.3564C68.9854 22.3513 68.9599 22.3462 68.9343 22.3428C68.839 22.3258 68.7437 22.3139 68.6483 22.3054C68.6143 22.302 68.582 22.3003 68.5479 22.2969C68.5241 22.2951 68.5019 22.2934 68.4764 22.2934C68.4492 22.2917 68.4219 22.29 68.3947 22.29C68.3538 22.29 68.313 22.2883 68.2721 22.2883C68.2313 22.2883 68.1904 22.2883 68.1496 22.29C68.1206 22.29 68.0951 22.2917 68.0678 22.2934C68.044 22.2934 68.0202 22.2951 67.9963 22.2969C67.9623 22.3003 67.93 22.302 67.8959 22.3054C67.8006 22.3139 67.7052 22.3258 67.6099 22.3428C67.5844 22.3462 67.5588 22.3513 67.5333 22.3564C67.5044 22.3615 67.4737 22.3666 67.4465 22.3735C67.421 22.3786 67.3971 22.3837 67.3733 22.3905C66.4915 22.5897 65.671 23.0884 65.082 23.8868C65.0632 23.909 65.0479 23.9328 65.0309 23.9566C64.9832 24.023 64.939 24.0911 64.8947 24.1609C64.8572 24.2188 64.8215 24.2784 64.7892 24.3397L64.7721 24.372L60.6287 31.5473L54.4815 42.1937C54.0066 43.0142 53.1316 43.5198 52.1834 43.5198H47.5684L49.509 40.1594L60.2286 21.5938C61.8697 18.7509 64.6445 17.212 67.5095 16.9805H69.0382C71.9032 17.212 74.678 18.7509 76.3191 21.5938L87.0386 40.1594L88.9793 43.5198H88.9759Z" fill="#5B5B5B" fill-opacity="0.5"/>
<path d="M42.7182 30.2479C43.4043 29.4836 43.9422 28.5831 44.2929 27.594C44.5874 26.765 44.7474 25.8695 44.7474 24.9401C44.7474 24.0106 44.5874 23.1169 44.2946 22.2861C43.9456 21.2971 43.4059 20.3982 42.7199 19.6322C42.5241 19.4126 42.3148 19.2032 42.0935 19.0057C41.3291 18.3197 40.4303 17.7801 39.4395 17.4311C38.6105 17.1366 37.7151 16.9766 36.7856 16.9766H7.21777V19.6305C7.21777 21.0962 8.406 22.2844 9.87171 22.2844H36.7839C38.2496 22.2844 39.4378 23.4727 39.4378 24.9384C39.4378 26.4041 38.2496 27.5923 36.7839 27.5923H9.87171C8.406 27.5923 7.21777 28.7805 7.21777 30.2462V40.862C7.21777 42.3277 8.406 43.5159 9.87171 43.5159H36.7839C37.7151 43.5159 38.6088 43.3559 39.4378 43.0614C40.4269 42.7124 41.3257 42.1728 42.0917 41.4867C42.3131 41.2893 42.5207 41.0816 42.7182 40.8603C43.4043 40.0942 43.9422 39.1954 44.2929 38.2063C44.5874 37.3756 44.7474 36.4819 44.7474 35.5524C44.7474 34.6229 44.5874 33.7292 44.2929 32.8985C43.9439 31.9094 43.4043 31.0106 42.7182 30.2445V30.2479ZM36.7839 38.2115H12.5256V32.9036H36.7839C38.2496 32.9036 39.4378 34.0918 39.4378 35.5575C39.4378 37.0232 38.2496 38.2115 36.7839 38.2115Z" fill="#5B5B5B" fill-opacity="0.5"/>
<path d="M96.9357 16.9805C95.47 16.9805 94.2817 18.1687 94.2817 19.6344V43.5215H96.9357C98.4014 43.5215 99.5896 42.3333 99.5896 40.8676V16.9805H96.9357Z" fill="#5B5B5B" fill-opacity="0.5"/>
<path d="M142.426 16.9805V19.6344C142.426 21.1001 141.237 22.2883 139.772 22.2883H118.167C115.81 22.2883 113.69 23.3131 112.235 24.9423C111.549 25.7066 111.009 26.6072 110.66 27.5962C110.366 28.4252 110.206 29.3207 110.206 30.2501C110.206 31.1796 110.366 32.0733 110.658 32.9041C111.007 33.8931 111.547 34.792 112.233 35.558C113.69 37.1872 115.808 38.212 118.167 38.212H142.426V40.8659C142.426 42.3316 141.237 43.5198 139.772 43.5198H118.167C115.18 43.5198 112.424 42.5325 110.206 40.8676L110.204 40.8659C109.2 40.1118 108.306 39.2163 107.552 38.2137C106.939 37.3965 106.416 36.5062 106.003 35.5597C105.635 34.7171 105.351 33.8284 105.165 32.9058C104.991 32.0478 104.899 31.1609 104.899 30.2519C104.899 29.3428 104.991 28.4559 105.165 27.5979C105.352 26.6752 105.635 25.7866 106.004 24.944C106.418 23.9958 106.939 23.1072 107.552 22.29C108.306 21.284 109.201 20.3902 110.206 19.6361C112.424 17.9695 115.18 16.9822 118.167 16.9822H142.426V16.9805Z" fill="#5B5B5B" fill-opacity="0.5"/>
</svg>
