<svg width="167" height="40" viewBox="0 0 167 40" fill="none" xmlns="http://www.w3.org/2000/svg">
<mask id="mask0_236_364" style="mask-type:luminance" maskUnits="userSpaceOnUse" x="2" y="16" width="159" height="9">
<path d="M2.80176 16H160.941V24.9208H2.80176V16Z" fill="white"/>
</mask>
<g mask="url(#mask0_236_364)">
<path fill-rule="evenodd" clip-rule="evenodd" d="M159.085 17.9223H144.581C144.581 16.7908 145.218 16 146.359 16H160.863C160.863 16 160.491 17.9223 159.085 17.9223ZM125.004 19.0972V16.8077L135.049 22.6758V17.9296C135.049 16.7896 135.689 16 136.821 16H137.606V24.9184H135.049L125.004 19.0972ZM121.159 17.9296C121.159 16.7884 121.788 16 122.937 16H123.681V24.9184H121.159V17.9296ZM97.915 24.9184V16H98.6245C99.7457 16 100.396 16.7824 100.396 17.9223V22.996H111.716V17.9223C111.716 16.7945 112.355 16 113.494 16H114.197V24.9111L97.915 24.9184ZM89.4142 17.9091H84.0208V24.9208H81.2524V17.9091H74.1615C74.1615 16.7812 74.7994 16 75.9401 16H91.1928C91.1928 16 90.8222 17.9091 89.4142 17.9091ZM65.7027 24.9184H51.1744C51.1744 24.9184 51.546 22.996 52.952 22.996H61.9584L52.7248 19.4354H57.7066C57.7066 19.4354 67.4561 23.0153 67.4561 22.996C67.4561 24.1708 66.8052 24.9184 65.7027 24.9184ZM65.6785 17.9223H51.1744C51.1744 16.7656 51.8113 16 52.9697 16H67.4561C67.4561 16 67.0846 17.9223 65.6785 17.9223ZM27.7804 22.996H42.2854C43.6924 22.996 44.063 24.9184 44.063 24.9184H29.559C28.4117 24.9184 27.7804 24.1311 27.7804 22.996ZM27.7804 21.3541V19.5919H41.2518V21.3541H27.7804ZM42.2854 17.9235H27.7804C27.7804 16.7896 28.4183 16 29.559 16H44.063C44.063 16 43.6915 17.9235 42.2854 17.9235ZM18.8755 24.9184H4.44971C4.44971 24.9184 4.82404 22.9936 6.23757 22.9936H17.7935V21.0484H19.1549C19.6047 21.0484 19.7304 21.0869 20.0265 21.3614C20.2025 21.5203 20.3673 21.7008 20.5191 21.8994C20.5656 21.9629 20.6009 22.0388 20.6225 22.1218C20.644 22.2047 20.6513 22.2927 20.6438 22.3797V22.9888C20.6541 24.1215 20.0116 24.9184 18.8755 24.9184ZM7.30284 21.3578V19.5919H16.1472V21.3553L7.30284 21.3578ZM20.5265 19.1513C20.3747 19.3475 20.2099 19.5281 20.0339 19.687C19.7369 19.9602 19.6112 20.0048 19.1614 20.0048H17.7935V17.9223H6.22826C4.82218 17.9223 4.44971 16 4.44971 16H18.8755C20.0116 16 20.6541 16.7824 20.6541 17.9272V18.6686C20.6609 18.7559 20.653 18.8439 20.631 18.9268C20.6089 19.0097 20.5733 19.0855 20.5265 19.1489V19.1513ZM158.051 19.5967V21.3578H144.581V19.5919L158.051 19.5967ZM160.863 24.9184H146.359C145.211 24.9184 144.581 24.1311 144.581 22.996H159.085C160.493 22.996 160.863 24.9184 160.863 24.9184Z" fill="#3D3D3D"/>
</g>
</svg>
