<svg width="79" height="79" viewBox="0 0 79 79" fill="none" xmlns="http://www.w3.org/2000/svg">
<path fill-rule="evenodd" clip-rule="evenodd" d="M56.3717 0H22.2288L0 22.2284V56.1048L22.0511 78.245H56.0162L78.245 56.0162V22.0511L56.3717 0ZM71.4877 52.9932L52.9932 71.4877H25.2518L6.75772 53.0823V25.2518L25.2518 6.84639H53.3483L71.4872 25.074V52.9932H71.4877Z" fill="#5B5B5B" fill-opacity="0.5"/>
<path fill-rule="evenodd" clip-rule="evenodd" d="M22.5101 30.2308L17.7975 20.6279L10.7729 27.2079V50.7704L17.5307 57.6168V34.6766L23.3992 47.747L30.0675 30.3199V66.8638H37.5362V11.2031H29.6233L22.5101 30.2308ZM42.759 11.2031V66.8638H51.295L67.4775 50.7704V39.0333H55.0294V45.791H59.6529C60.898 45.6128 60.9866 47.036 60.0971 48.1025C59.2083 49.1694 50.2277 57.9723 50.2277 57.9723V20.0946L60.7194 31.0309V33.6983H67.4771V27.4743L51.4724 11.2031H42.759Z" fill="#5B5B5B" fill-opacity="0.5"/>
</svg>
