<svg width="138" height="49" viewBox="0 0 138 49" fill="none" xmlns="http://www.w3.org/2000/svg">
<g clip-path="url(#clip0_236_321)">
<path d="M15.3137 8.67991L11.4871 0.472698C11.274 0.0143092 10.6243 0.0143092 10.4111 0.472698L0.829535 21.0178C-0.102684 23.0188 -0.102684 25.3287 0.829535 27.3297L4.03452 34.2029C4.24767 34.6613 4.8974 34.6613 5.11056 34.2029L15.3137 12.3264C15.853 11.1727 15.853 9.83619 15.3137 8.67991Z" fill="#5B5B5B" fill-opacity="0.5"/>
<path d="M16.7853 14.1446L6.58221 36.0211C6.04291 37.1773 6.04291 38.5138 6.58221 39.6676L10.4087 47.8748C10.6218 48.3331 11.2716 48.3331 11.4847 47.8748L21.0663 27.3298C21.9984 25.3288 21.9984 23.0187 21.0663 21.0179L17.8612 14.1446C17.6481 13.6862 16.9984 13.6862 16.7853 14.1446Z" fill="#5B5B5B" fill-opacity="0.5"/>
<path d="M111.391 32.1884L102.531 16.1602L93.6714 32.1884H97.6108L102.531 23.1597L107.562 32.1884H111.391Z" fill="#5B5B5B" fill-opacity="0.5"/>
<path d="M74.0361 16.1602L82.8961 32.1884L91.756 16.1602H87.8165L82.8961 25.1889L77.8651 16.1602H74.0361Z" fill="#5B5B5B" fill-opacity="0.5"/>
<path d="M65.941 16.1602H62.5127V32.1884H65.941V16.1602Z" fill="#5B5B5B" fill-opacity="0.5"/>
<path d="M40.9226 23.3672H37.4941V32.19H55.291V28.9863L40.9226 28.9889V23.3672Z" fill="#5B5B5B" fill-opacity="0.5"/>
<path d="M123.849 16.1602H123.313H119.848V32.1884H123.313V20.7287L133.636 32.1884H134.289H137.753L123.849 16.1602Z" fill="#5B5B5B" fill-opacity="0.5"/>
<path d="M39.21 19.5955C40.156 19.5955 40.9229 18.8266 40.9229 17.8778C40.9229 16.9292 40.156 16.1602 39.21 16.1602C38.2639 16.1602 37.4971 16.9292 37.4971 17.8778C37.4971 18.8266 38.2639 19.5955 39.21 19.5955Z" fill="#5B5B5B" fill-opacity="0.5"/>
<path d="M136.04 19.5955C136.986 19.5955 137.753 18.8266 137.753 17.8778C137.753 16.9292 136.986 16.1602 136.04 16.1602C135.094 16.1602 134.327 16.9292 134.327 17.8778C134.327 18.8266 135.094 19.5955 136.04 19.5955Z" fill="#5B5B5B" fill-opacity="0.5"/>
</g>
<defs>
<clipPath id="clip0_236_321">
<rect width="137.907" height="48.4141" fill="white"/>
</clipPath>
</defs>
</svg>
