<svg width="173" height="22" viewBox="0 0 173 22" fill="none" xmlns="http://www.w3.org/2000/svg">
<mask id="mask0_236_370" style="mask-type:luminance" maskUnits="userSpaceOnUse" x="0" y="0" width="168" height="22">
<path d="M168 0.5H0V21.5H168V0.5Z" fill="white"/>
</mask>
<g mask="url(#mask0_236_370)">
<path d="M61.3006 8.06503C64.6229 8.65887 71.9623 9.97149 72.3499 10.0731C72.6629 10.1617 73.2216 10.322 73.4941 10.8916C73.7979 11.5274 73.6755 12.4951 73.1195 13.8553C71.3686 18.1371 67.9828 18.1371 66.3544 18.1371H52.1541C51.912 18.1371 51.7132 18.0225 51.5926 17.8127C51.4388 17.5312 51.4508 17.148 51.6165 16.8739C51.9322 16.3528 52.7322 15.1092 52.8215 14.9693L52.9807 14.7241H64.4259C65.7579 14.7241 67.344 14.3801 67.436 12.7645L67.4029 12.7599C65.0261 12.3599 57.1582 11.0399 55.7 10.8357C55.3558 10.7891 55.1118 10.6343 54.9765 10.378C54.7353 9.92022 54.8642 9.18933 55.3705 8.14613C57.0035 4.76857 59.3408 3.125 62.5213 3.125H73.7252L73.3671 3.89877C73.2603 4.12624 73.067 4.46558 72.8958 4.76484L72.5174 5.4314C72.2523 5.90592 71.9338 6.45315 71.3704 6.58087C70.9967 6.66571 70.6045 6.6163 70.2253 6.6163C69.7825 6.6163 69.3397 6.62003 68.8969 6.62283C67.5281 6.62935 66.1657 6.60791 64.7978 6.57994C63.8155 6.55943 62.6639 6.59206 61.876 7.27261C61.6256 7.48889 61.4323 7.76297 61.3006 8.06689M91.7126 13.5597C91.2882 14.7903 90.6135 15.9696 89.646 16.8441C89.1866 17.2599 88.6315 17.6365 88.0544 17.8574C87.3409 18.1306 86.483 18.1455 85.73 18.1539C83.5658 18.1772 81.4071 18.1381 79.2429 18.1381C77.2923 18.1381 75.9014 17.5759 75.1069 16.4693C73.5733 14.327 74.5067 10.5504 75.4889 7.49915C76.1177 5.55073 77.6025 4.13277 79.5439 3.57901C80.8907 3.19492 82.3608 3.27975 83.749 3.27975C84.7312 3.27975 85.9067 3.28908 87.247 3.30772C89.622 3.34128 91.1999 3.97149 92.0698 5.22817C93.1993 6.86614 93.0823 9.58926 91.7126 13.5597ZM84.2267 14.9152C85.359 14.9152 86.3256 14.5209 86.9184 13.5029C87.3262 12.8028 87.5076 11.9954 87.7303 11.2142C87.977 10.3481 88.2845 9.48672 88.3259 8.58616C88.348 8.1191 88.2863 7.62127 87.9991 7.25583C87.7708 6.9659 87.4229 6.79156 87.0666 6.70766C86.7094 6.62376 86.3394 6.62189 85.973 6.62096C84.9945 6.61723 84.0159 6.6135 83.0365 6.60884C82.4252 6.60604 81.7891 6.60884 81.2414 6.88479C80.7655 7.12438 80.401 7.55135 80.1441 8.02214C79.8873 8.49293 79.7271 9.01127 79.5688 9.52494C79.2696 10.4954 78.9695 11.4706 78.8112 12.4755C78.755 12.8298 78.7173 13.1934 78.7744 13.5476C78.8314 13.9019 78.9925 14.2515 79.2742 14.4706C79.6341 14.7512 80.1202 14.7782 80.574 14.7941C81.7891 14.8369 83.0107 14.9152 84.2267 14.9152ZM120.445 3.33383L123.455 18.1381H119.306L118.662 14.8528H118.64C118.036 14.8481 115.906 14.8351 114.097 14.8351C112.831 14.8351 112.016 14.8397 111.605 14.8528C109.744 14.9078 108.397 17.355 108.145 17.8463L107.996 18.1381H91.7485L95.8118 3.25365L100.452 3.30959L97.3629 14.7549L105.127 14.8043C105.929 13.7024 111.315 6.32357 112.291 5.09952C113.461 3.63308 114.734 3.33383 116.286 3.33383H120.445ZM112.573 11.6067L112.466 11.753L117.995 11.7046L116.966 6.77292C116.87 6.76639 116.772 6.7608 116.679 6.7608C116.332 6.7608 116.111 6.8764 115.874 7.13277C115.215 7.84781 114.683 8.70082 114.11 9.48765C113.597 10.1924 113.084 10.8991 112.573 11.6057M138.435 14.2067L142.082 18.1371H135.72L132.272 14.2533H129.216L128.162 18.1371H123.516L123.713 17.4445C124.185 15.7944 125.786 10.1747 126.389 8.05104C127.298 4.84128 129.367 3.28069 132.712 3.28069C135.884 3.28069 137.187 3.29001 138.026 3.29747C138.036 3.29747 139.22 3.30586 139.603 3.30586H140.151C141.449 3.30586 142.671 3.37578 143.353 4.24278C143.941 4.98858 144.028 6.22475 143.621 8.02028C142.726 11.9656 141.215 13.7788 138.436 14.2058M130.142 11.1545H135.75C137.996 11.1545 138.56 9.5902 138.982 7.84874L139.001 7.77137C139.119 7.28473 139.121 6.95005 139.009 6.80089C138.929 6.69834 138.774 6.68902 138.608 6.68902H133.174C131.801 6.68902 131.216 7.8273 130.895 8.68591C130.71 9.17441 130.326 10.5019 130.142 11.1545ZM146.452 3.25179L142.388 18.1362H146.98L151.069 3.25179H146.452ZM167.818 10.9485C167.506 10.3957 166.861 10.1757 165.786 9.96403C164.455 9.70113 157.908 8.50785 156.744 8.29623C156.944 7.65297 157.633 6.71605 159.151 6.71605C160.825 6.71605 162.498 6.70673 164.172 6.74122C164.265 6.74309 164.358 6.74495 164.451 6.74681C164.769 6.75334 165.088 6.75987 165.401 6.70953C166.181 6.58554 166.663 6.03457 166.984 5.33631C167.224 4.81425 167.41 4.39287 167.537 4.07777L167.837 3.33196H158.071C155.515 3.33196 153.523 4.41431 151.979 6.64054C150.787 8.35775 150.315 9.57994 150.577 10.2735C150.708 10.6175 150.982 10.7471 151.187 10.7919C151.506 10.8683 152.852 11.1154 154.577 11.4305L154.718 11.4556C157.067 11.8854 159.991 12.4196 161.458 12.7356C161.764 12.8018 161.805 13.0386 161.786 13.2269C161.719 13.8534 160.89 14.781 159.317 14.781H150.174L148.926 16.7024C148.817 16.8954 148.642 17.4389 148.849 17.8108C148.918 17.9339 149.095 18.1371 149.489 18.1371H161.11C162.947 18.1371 166.237 17.5461 167.61 13.5849C168.057 12.2947 168.119 11.4827 167.818 10.9504" fill="#3D3D3D"/>
<path d="M43.6429 8.97234H8.99186C7.77767 8.97234 7.13789 7.58608 7.97098 6.74425C10.6912 3.99503 15.9668 2.13052 22.0277 2.13052C27.5261 2.13052 32.3764 3.66501 35.2614 6.00124C35.463 6.16439 35.718 6.25575 35.9822 6.25575H41.6831C38.0479 2.8409 30.6117 0.5 22.0277 0.5C9.86177 0.5 0 5.20044 0 11C0 11.2312 0.0174903 11.4615 0.0487888 11.6889H36.0954C37.1448 11.6889 37.8205 12.7564 37.3243 13.6383C35.2955 17.248 29.2143 19.8695 22.0267 19.8695C15.629 19.8695 10.1076 17.7924 7.54109 14.7896C7.33212 14.5454 7.0173 14.4055 6.6859 14.4055H1.18474C4.15165 18.5326 12.362 21.5009 22.0267 21.5009C34.1917 21.5009 44.0544 16.7996 44.0544 11.0009C44.0544 10.3073 43.9117 9.62865 43.6429 8.97234Z" fill="#3D3D3D"/>
</g>
</svg>
