<svg width="185" height="34" viewBox="0 0 185 34" fill="none" xmlns="http://www.w3.org/2000/svg">
<mask id="mask0_236_377" style="mask-type:luminance" maskUnits="userSpaceOnUse" x="6" y="6" width="174" height="23">
<path d="M179.65 6.60156H6.47656V28.5189H179.65V6.60156Z" fill="white"/>
</mask>
<g mask="url(#mask0_236_377)">
<path d="M144.43 8.97389C143.759 8.38016 142.977 7.91497 142.083 7.57694C141.19 7.23933 140.228 7.07031 139.203 7.07031H132.052V11.1916H139.203C139.966 11.1916 140.61 11.4251 141.136 11.8903C141.66 12.3566 141.925 12.9267 141.925 13.6021V28.0761H146.579V13.6021C146.579 12.6937 146.388 11.8441 146.006 11.0522C145.626 10.2608 145.101 9.56707 144.43 8.97389Z" fill="#3D3D3D"/>
<path d="M147.112 11.2613H156.451V7.03516H147.112V11.2613Z" fill="#3D3D3D"/>
<path d="M49.3601 7.00391C49.3628 7.54271 49.3646 8.19798 49.3646 8.29268C49.3664 10.4657 48.9982 15.9338 45.5466 19.7467C43.8941 21.5733 41.7417 22.8035 39.1496 23.4046C38.9547 23.4505 38.7407 23.4903 38.5034 23.5254C37.9912 23.5914 37.2574 23.6118 36.7394 23.6164H36.1175V7.00391H31.3569V28.078H34.8274C36.8051 28.078 38.5798 28.0453 40.2861 27.6499C46.5924 26.1875 50.9702 22.051 52.9453 15.6891C53.8391 12.8102 54.0418 10.1002 54.0546 8.33384C54.0562 8.18211 54.0553 7.52852 54.0539 7.00391H49.3601Z" fill="#3D3D3D"/>
<path d="M13.0119 19.492L23.3652 19.4884V15.8516L12.4766 15.8687C9.12698 15.8687 6.47656 16.9252 6.47656 20.3397L6.48143 28.0397H26.7829V23.9186H11.2406L11.234 21.1501C11.2326 20.2353 12.0288 19.492 13.0119 19.492Z" fill="#3D3D3D"/>
<path d="M6.47998 7V10.9308C6.47998 13.3234 8.60948 15.2635 11.2362 15.2635V11.1219H26.7823V11.1078V7H6.47998Z" fill="#3D3D3D"/>
<path d="M84.3701 21.5081V7.03125H89.1724V21.0904C89.1724 21.7655 89.4303 22.336 89.9466 22.8026C90.4641 23.2674 91.0953 23.5006 91.8432 23.5006H105.656V28.0423H91.6072C90.6008 28.0423 89.6594 27.8725 88.7822 27.5354C87.9057 27.1972 87.1372 26.7317 86.4792 26.1374C85.8211 25.5435 85.3054 24.8508 84.9309 24.0588C84.5569 23.2665 84.3701 22.4164 84.3701 21.5081Z" fill="#3D3D3D"/>
<path d="M179.325 11.1565V7.03516H159.247V28.0413H179.325V23.9198H164.007V19.096H176.409V15.4953H164.007V11.1565H179.325Z" fill="#3D3D3D"/>
<path d="M79.9412 12.0895C78.5771 9.68545 76.4894 8.11639 73.5625 7.29308C71.9375 6.83577 70.3323 6.60943 68.7518 6.60156C67.171 6.60943 65.5668 6.83577 63.9417 7.29308C61.0145 8.11639 58.9275 9.68545 57.5624 12.0895C56.4314 14.0818 56.0261 16.3617 56.3229 19.0585C56.6894 22.3864 58.2288 24.8381 61.0298 26.5556C63.0903 27.8188 65.5467 28.4282 68.7518 28.4751C71.9575 28.4282 74.4142 27.8188 76.4744 26.5556C79.2757 24.8381 80.8145 22.3864 81.181 19.0585C81.4782 16.3617 81.0732 14.0818 79.9412 12.0895ZM72.457 23.5607C71.3405 23.9213 70.5503 24.0503 68.7518 24.0503C66.954 24.0503 66.1636 23.9213 65.0469 23.5607C62.5336 22.7471 61.0937 20.831 60.9932 18.1637C60.9642 17.3751 61.0114 16.6213 61.135 15.9222C61.4834 13.9586 62.6457 12.5575 64.5885 11.7542C65.8235 11.2442 67.072 11.048 68.7518 11.048C70.4316 11.048 71.6808 11.2442 72.9157 11.7542C74.8581 12.5575 76.0204 13.9586 76.3688 15.9222C76.4931 16.6213 76.54 17.3751 76.5105 18.1637C76.4102 20.831 74.9704 22.7471 72.457 23.5607Z" fill="#3D3D3D"/>
<path d="M124.222 7.07031L124.213 18.629C124.208 19.2433 124.128 19.8699 123.975 20.4922C123.544 22.2375 122.308 23.4101 120.4 23.8835C119.661 24.0669 118.907 24.1453 118.146 24.1428C117.385 24.1453 116.63 24.0669 115.892 23.8835C113.983 23.4101 112.748 22.2375 112.316 20.4922C112.162 19.8699 112.083 19.2433 112.079 18.629L112.07 7.07031H107.288L107.298 18.8617C107.304 19.7513 107.377 20.5052 107.522 21.1657C108.272 24.615 110.362 26.8288 113.911 27.9335C115.247 28.3488 116.669 28.5274 118.146 28.518C119.622 28.5274 121.044 28.3488 122.38 27.9335C125.93 26.8288 128.019 24.615 128.77 21.1657C128.914 20.5052 128.988 19.7513 128.992 18.8617L129.004 7.07031H124.222Z" fill="#3D3D3D"/>
</g>
</svg>
