<svg width="94" height="94" viewBox="0 0 94 94" fill="none" xmlns="http://www.w3.org/2000/svg">
<path fill-rule="evenodd" clip-rule="evenodd" d="M25.8634 3.95942C26.1408 6.72695 26.9927 19.3694 26.9074 19.4542C26.851 19.5106 25.5291 19.1183 23.9701 18.5828C19.1298 16.9199 13.7013 15.0315 11.922 14.3918C10.9855 14.0551 10.219 13.8202 10.219 13.8699C10.219 13.9434 13.3095 23.8125 15.0311 29.2364C15.2588 29.9543 15.7528 31.5204 16.1285 32.7169C23.4291 55.9607 24.8095 60.195 25.3761 61.0829C25.7476 61.6648 26.1392 61.9943 26.9013 62.3661C27.7089 62.7602 37.6761 66.2202 43.2309 68.0345C43.7592 68.2073 44.3329 68.4073 44.5059 68.4793C44.8975 68.642 44.8965 68.6376 43.6493 64.7761C43.136 63.1865 42.7473 61.8544 42.7861 61.8156C42.8252 61.7771 43.1964 61.9774 43.6114 62.261C44.8593 63.1138 46.7184 64.2152 46.9093 64.2152C47.0076 64.2152 47.9581 63.6628 49.0216 62.9877C50.0851 62.3126 50.9853 61.7899 51.0222 61.8266C51.0588 61.8635 50.6638 63.2184 50.1443 64.8381C48.8194 68.9675 48.8964 68.6423 49.2801 68.4833C49.4595 68.4092 50.0382 68.2073 50.5668 68.0345C56.0721 66.2361 66.0843 62.7621 66.8774 62.3752C67.9387 61.8575 68.36 61.3997 68.9002 60.1768C69.0817 59.7659 70.3312 55.9447 71.6767 51.6857C74.0209 44.2643 76.4637 36.5284 77.7485 32.4559C78.0805 31.403 78.5456 29.9346 78.7822 29.1929C79.0185 28.4512 79.4013 27.2372 79.6326 26.4955C79.8642 25.7539 80.7359 22.9933 81.5693 20.3612C83.5505 14.1055 83.5743 14.0286 83.5765 13.8945C83.5774 13.8313 82.8119 14.0544 81.8754 14.3901C80.016 15.0566 74.2988 17.0461 69.8273 18.5827C68.2683 19.1183 66.95 19.5142 66.8981 19.4622C66.8164 19.3809 66.9882 16.7842 67.8348 5.30812C67.9193 4.15954 67.9682 3.19597 67.9431 3.16658C67.8984 3.11471 57.6257 9.6006 53.7758 12.1116C51.7339 13.4432 50.9884 14.1809 50.3684 15.4831C49.9502 16.3611 49.8466 17.2293 49.4441 23.2366C49.297 25.4358 48.9794 29.8977 48.7384 33.152C47.8699 44.885 47.3741 51.789 47.1356 55.4706C47.0721 56.4514 46.9713 57.2542 46.9112 57.2542C46.8511 57.2542 46.6621 55.1989 46.4912 52.6863C46.3203 50.1737 46.069 46.7084 45.9328 44.9857C45.7967 43.2628 45.5247 39.5821 45.3288 36.8066C45.1325 34.0308 44.8574 30.2719 44.7172 28.4533C44.5767 26.6348 44.3369 23.2674 44.1842 20.9703C43.8784 16.3759 43.7175 15.6481 42.7132 14.3158C42.0675 13.4591 40.6685 12.4624 35.9754 9.51497C34.6339 8.67271 31.8252 6.89208 29.7331 5.55819C27.6412 4.2243 25.8961 3.13281 25.8551 3.13281C25.8142 3.13281 25.818 3.5047 25.8634 3.95942ZM26.9315 12.3888C26.8758 12.5275 26.8344 12.4863 26.826 12.2835C26.8185 12.1001 26.8597 11.9974 26.9177 12.0552C26.9757 12.113 26.982 12.2632 26.9315 12.3888ZM12.8996 79.186C10.5781 79.6029 8.79447 80.7684 7.94629 82.4231C7.57284 83.1514 7.51172 83.5054 7.51172 84.9354C7.51172 86.444 7.56114 86.6966 8.03887 87.628C8.64652 88.8129 9.77015 89.7613 11.267 90.3531C12.0869 90.677 12.5859 90.7343 14.673 90.7434C17.5263 90.7556 18.5913 90.5071 19.9376 89.5146C21.6096 88.2821 22.3769 86.6168 22.228 84.543C22.0552 82.138 20.5257 80.2683 18.127 79.53C16.7705 79.1128 14.2376 78.9459 12.8996 79.186ZM77.0825 79.1766C74.5899 79.4924 72.6453 80.3036 71.4538 81.5252C70.5743 82.4266 70.2686 83.3273 70.2842 84.9714C70.3096 87.6987 71.9455 89.5146 75.2068 90.4367C76.8493 90.9008 83.2757 90.8686 85.0631 90.3872L86.2856 90.058L86.3341 87.5779L86.3826 85.0982H84.625C82.9383 85.0982 82.8748 85.1116 83.0491 85.4365C83.1493 85.6227 83.3092 85.823 83.4046 85.8819C83.5001 85.9407 83.5784 86.6778 83.5784 87.5197V89.0505L82.3994 89.1613C78.7757 89.5024 75.91 89.1372 74.6199 88.1704C72.6322 86.6803 72.497 83.4397 74.357 81.8732C75.741 80.7077 77.6558 80.3556 81.3133 80.5932C84.2484 80.7838 84.6609 80.9171 85.3348 81.8926C85.6268 82.3158 85.9407 82.6619 86.0321 82.6619C86.2258 82.6619 86.2546 80.2351 86.0643 79.9371C85.6947 79.3581 79.6742 78.8486 77.0825 79.1766ZM24.5416 80.5853V81.6413L25.0488 81.2814C25.5111 80.9534 25.8053 80.9215 28.3674 80.9215H31.1788V85.152C31.1788 88.6023 31.1315 89.4445 30.9224 89.72C30.3913 90.4198 30.5548 90.509 32.2706 90.4561L33.8862 90.406L33.9325 85.6637L33.9792 80.9215H36.4445C38.6376 80.9215 38.9753 80.9615 39.4986 81.2839L40.0867 81.646V80.5878V79.5293H32.3141H24.5416V80.5853ZM43.0562 79.6323C43.0562 79.6893 43.2133 79.9346 43.4055 80.1781C43.736 80.5969 43.7548 80.8839 43.7548 85.5642V90.5074L45.1084 90.4567L46.4621 90.406L46.5081 84.9677L46.5544 79.5293H44.8052C43.8431 79.5293 43.0562 79.576 43.0562 79.6323ZM50.7286 79.9878C51.0757 80.4276 51.0907 80.6514 51.0907 85.4697V90.493H52.4879H53.8853V85.5332C53.8853 82.8053 53.9442 80.5772 54.0165 80.5813C54.0884 80.5856 54.7673 81.5058 55.525 82.6263C56.2827 83.7464 57.8126 85.977 58.9249 87.5826L60.9471 90.5024L63.311 90.4542L65.6753 90.406L65.7213 84.9677L65.7673 79.5293H64.0209H62.2744L62.6206 80.0949C62.9408 80.6185 62.9667 80.9809 62.9671 84.9677C62.9677 87.3366 62.9092 89.2708 62.8369 89.2664C62.7649 89.2617 61.8021 87.9285 60.6973 86.3028C59.5925 84.6778 58.099 82.4892 57.3785 81.4398L56.0687 79.5312L53.2174 79.5306L50.3668 79.5293L50.7286 79.9878ZM16.9732 80.8413C19.1626 81.9086 20.0602 84.4121 19.0307 86.5801C18.5359 87.6224 17.8334 88.2978 16.7412 88.7813C14.8466 89.6204 12.995 89.2733 11.5231 87.8033C9.00911 85.2929 10.2325 81.3027 13.7997 80.3778C14.6395 80.1603 15.9764 80.3556 16.9732 80.8413Z" fill="#5B5B5B" fill-opacity="0.5"/>
</svg>
