<svg width="128" height="92" viewBox="0 0 128 92" fill="none" xmlns="http://www.w3.org/2000/svg">
<path fill-rule="evenodd" clip-rule="evenodd" d="M61.2148 6.23773C50.3962 6.97884 40.553 13.6482 35.7639 23.4824C32.0827 31.0419 31.5744 39.342 34.2991 47.4012C37.6448 57.2971 46.4054 65.1493 56.6686 67.4513C59.8165 68.1574 63.8922 68.3862 66.9886 68.0307C71.078 67.5611 75.4458 66.1197 78.8909 64.1026C87.3724 59.1366 92.8392 50.9535 94.2066 41.1766C94.4443 39.4775 94.4742 35.2829 94.2604 33.6355C93.0674 24.4455 88.4213 16.7034 81.0415 11.6085C76.4233 8.41995 71.3236 6.64435 65.5944 6.22989C63.7118 6.0936 63.3088 6.09435 61.2148 6.23773ZM61.3889 9.59172C50.1045 10.5384 40.5296 18.232 37.2026 29.0261C36.3374 31.8328 35.9932 34.1947 35.9951 37.3105C36.0002 44.994 38.9169 51.8557 44.4694 57.246C48.7455 61.3973 54.1173 63.9722 60.2214 64.7963C61.6928 64.9949 65.6445 64.9921 67.0507 64.7914C71.5314 64.1521 75.3836 62.7122 78.9087 60.359C84.0856 56.9031 87.8876 51.9251 89.84 46.0464C91.7163 40.3974 91.7341 34.3384 89.8908 28.6845C89.6843 28.0512 89.3572 27.1609 89.1638 26.7062L88.8123 25.8793L88.7445 29.1033C88.6958 31.4223 88.6047 32.8125 88.4198 34.0553C87.0492 43.2706 83.1573 48.9456 75.6804 52.6307C73.7237 53.5951 71.4916 54.4087 69.4099 54.9161C67.3234 55.4247 64.319 55.8872 64.319 55.6997C64.319 55.652 64.5753 55.3629 64.8884 55.0575C69.7664 50.2999 72.4176 42.5539 71.8952 34.5859C71.6452 30.7713 71.0885 28.4537 69.7615 25.7008C67.1074 20.1947 61.6134 15.5157 54.5688 12.7618C53.7509 12.442 53.0538 12.1509 53.0197 12.1148C52.9 11.9882 56.6072 12.2017 57.942 12.3983C61.131 12.868 64.3012 13.8217 66.9741 15.1157C69.8774 16.5211 71.8793 17.9274 74.0082 20.0566C75.7639 21.8126 76.8298 23.2714 77.7854 25.2265C79.3272 28.3806 80.1137 31.199 81.0274 36.8433C81.0634 37.0661 81.1487 37.2482 81.2168 37.2482C81.4094 37.2482 82.4994 36.1816 83.2387 35.2698C85.3682 32.6437 87.174 29.5083 88.2087 26.6405L88.6364 25.4551L87.9653 24.1867C83.8635 16.4351 76.2334 11.0562 67.5474 9.79316C65.8813 9.55086 62.9992 9.45655 61.3889 9.59172ZM61.7735 18.525C58.7112 18.9414 54.8419 20.121 52.0884 21.4777C46.2836 24.3382 42.8727 28.0246 40.7882 33.6909C39.4921 37.2141 38.8683 41.1653 38.8659 45.8678C38.8645 48.4558 38.9703 49.0799 39.2402 48.0748C39.4404 47.3288 40.4149 45.0644 41.0045 43.9754C41.6726 42.741 42.9183 40.8201 43.8629 39.5669C44.6493 38.5241 46.2037 36.8745 46.4002 36.8745C46.4614 36.8745 46.6382 37.6734 46.7929 38.6497C47.5126 43.1894 48.8916 47.5055 50.4808 50.1919C51.665 52.1937 54.0559 54.7701 56.2677 56.4279C60.6683 59.7264 66.6951 61.7854 72.5762 61.9998C73.6688 62.0396 74.5349 62.0429 74.5008 62.0073C74.4666 61.9715 73.7817 61.6853 72.9786 61.3714C67.4927 59.2269 62.5633 55.5876 59.6953 51.5646C58.109 49.3393 56.7296 46.1938 56.2034 43.6016C55.6609 40.9294 55.538 36.4624 55.9272 33.5732C56.1608 31.8397 56.7645 29.3014 57.3049 27.7803C57.8122 26.3526 58.9901 23.9893 59.8506 22.6727C60.7399 21.3121 61.4171 20.4658 62.567 19.278L63.381 18.4371L62.7635 18.4557C62.4239 18.466 61.9784 18.4972 61.7735 18.525ZM33.277 81.6638V87.8342L34.798 87.7992L36.3191 87.7642L36.3812 83.9197L36.4433 80.0752L38.8642 82.674C40.1956 84.1032 41.8387 85.8472 42.5153 86.5495L43.7456 87.8265H45.2164H46.6871V81.656V75.4856L45.1661 75.5206L43.645 75.5556L43.6122 79.3864C43.5941 81.4933 43.5382 83.213 43.4881 83.208C43.4378 83.203 42.041 81.7035 40.3842 79.8756C38.7273 78.0478 37.1446 76.3139 36.8671 76.0228L36.3626 75.4933H34.8198H33.277V81.6638ZM96.2871 75.6491C96.2544 75.7348 96.2421 78.4956 96.26 81.7845L96.2923 87.7642H97.8444H99.3965L99.4586 83.9125L99.5206 80.0608L99.9434 80.5489C100.176 80.8174 101.13 81.8499 102.063 82.8434C102.997 83.8369 104.425 85.3662 105.236 86.2417L106.711 87.8337L108.207 87.7989L109.702 87.7642L109.735 81.6288L109.767 75.4933H108.215H106.664L106.631 79.4297L106.598 83.3662L103.008 79.4297L99.4167 75.4933H97.8816C96.7681 75.4933 96.3303 75.5361 96.2871 75.6491ZM0.620788 77.0506V78.4832H5.10313C8.92775 78.4832 9.64594 78.512 9.99821 78.6796C10.7034 79.0154 10.8026 79.4132 10.8026 81.9029C10.8026 85.3206 10.9348 85.2103 6.83614 85.2103H3.85437L3.82072 82.7499L3.78707 80.2896H2.23497H0.682872L0.650092 84.1874L0.617188 88.0852L6.23765 88.0493C11.221 88.0174 11.9011 87.9897 12.2381 87.8043C12.7583 87.5181 13.3782 86.8675 13.7004 86.2693C13.9554 85.7957 13.9707 85.5876 14.0066 82.0873C14.0424 78.5939 14.0308 78.3675 13.7824 77.7012C13.4723 76.87 12.5876 75.9953 11.8252 75.766C11.4775 75.6615 9.75521 75.6179 5.97665 75.6179H0.620788V77.0506ZM18.8272 75.8008C18.1236 76.0524 17.5233 76.5917 17.0861 77.3651L16.7006 78.0472V81.8468V85.6464L17.037 86.2864C17.4504 87.0726 18.2147 87.7487 18.9097 87.9431C19.2765 88.0457 20.7269 88.0779 23.7781 88.0512C28.6139 88.0091 28.4599 88.0349 29.3457 87.1199C30.2193 86.2174 30.297 85.7884 30.297 81.8643C30.297 78.9526 30.2639 78.3057 30.0888 77.7902C29.8204 76.9997 28.8222 75.9807 28.1096 75.7694C27.3405 75.5414 19.4782 75.5681 18.8272 75.8008ZM52.2284 75.8008C51.4919 76.0643 50.8846 76.6274 50.4743 77.4278L50.1018 78.1542V81.8379C50.1018 85.314 50.1164 85.5534 50.3615 86.0824C50.7158 86.847 51.2137 87.4106 51.8247 87.7385C52.3277 88.0085 52.4356 88.014 57.8933 88.0493L63.4498 88.0853V84.1563V80.2273H59.8489H56.2481V81.6599V83.0925H58.2348H60.2214V84.1514V85.2103H57.251H54.2804L53.9145 84.9014C53.307 84.3886 53.2479 84.0834 53.2909 81.6852C53.3266 79.6933 53.3535 79.4657 53.5904 79.1459C54.0755 78.4913 54.11 78.4871 58.9487 78.4851L63.4498 78.4832V77.0506V75.6179L58.0796 75.6234C53.8387 75.6278 52.6082 75.665 52.2284 75.8008ZM81.7025 81.8468V88.0756H87.4143H93.126V86.707V85.3383L89.0595 85.3055L84.993 85.2726V84.2137V83.1548L89.0595 83.1219L93.126 83.0892V81.7204V80.3518H89.0232H84.9205L84.9567 79.3864L84.993 78.4209L89.0595 78.388L93.126 78.3552V76.9865V75.6179H87.4143H81.7025V81.8468ZM115.001 75.8275C114.307 76.0747 113.664 76.7275 113.256 77.6004L112.931 78.2963V81.8494V85.4024L113.346 86.2483C113.799 87.1729 114.42 87.7327 115.234 87.9528C115.522 88.0304 117.728 88.0659 121.02 88.0458L126.341 88.0133V84.1514V80.2896H122.74H119.139L119.104 81.691L119.069 83.0925H121.122H123.175V84.1514V85.2103H120.116H117.058L116.647 84.7735C116.13 84.2232 116.06 83.7828 116.119 81.4563C116.167 79.5354 116.306 79.0308 116.874 78.7049C117.081 78.5866 118.339 78.5294 121.747 78.4832L126.341 78.4209V77.0506V75.6802L120.94 75.6583C116.361 75.6396 115.457 75.6654 115.001 75.8275ZM68.7376 75.8717C67.9283 76.1162 66.9641 77.4914 67.0711 78.2491L67.1128 78.5455H72.8245H78.5362V77.1751V75.8048L73.8179 75.7836C71.2227 75.7719 68.9367 75.8116 68.7376 75.8717ZM20.7479 78.6408C20.5838 78.7254 20.3323 78.9527 20.1892 79.1459C19.9516 79.4666 19.9258 79.6892 19.8939 81.6998C19.8635 83.614 19.8878 83.9582 20.0802 84.3295C20.5192 85.1772 20.6297 85.2059 23.4903 85.2172C27.1346 85.2314 27.0686 85.2938 27.0686 81.841C27.0686 78.4504 27.1025 78.4823 23.5107 78.4851C21.8021 78.4863 20.9549 78.534 20.7479 78.6408ZM67.0507 84.2162V88.0831L68.6338 88.0482L70.217 88.0133L70.2506 85.5529L70.2843 83.0925H74.4455H78.6068L78.5715 81.7533L78.5362 80.4141L72.7935 80.3817L67.0507 80.3493V84.2162Z" fill="#5B5B5B" fill-opacity="0.5"/>
</svg>
