<svg width="152" height="27" viewBox="0 0 152 27" fill="none" xmlns="http://www.w3.org/2000/svg">
<path fill-rule="evenodd" clip-rule="evenodd" d="M0 13.2038V26.4077H5.66449H11.329V18.6208V10.8339H27.9892H44.6495V5.41696V0H22.3247H0V13.2038ZM57.7351 1.78489L55.9785 3.57045V14.9887V26.4077H57.9777H59.9769V16.0477C59.9769 8.89261 60.2241 5.43659 60.7766 4.87526C61.3211 4.32205 64.5085 4.06272 70.7728 4.06272H79.9692V2.03136V0H69.7305C59.5571 0 59.4811 0.0115121 57.7351 1.78489ZM86.2701 1.66233C84.6827 3.27455 84.6341 3.61717 84.6341 13.2038C84.6341 22.7905 84.6827 23.1331 86.2701 24.7453C87.8855 26.3874 88.0488 26.4077 99.7649 26.386C112.535 26.363 113.318 26.1714 114.597 22.7533C114.977 21.7355 115.289 17.4379 115.289 13.2038C115.289 8.96981 114.977 4.67213 114.597 3.65442C113.318 0.236317 112.535 0.0446883 99.7649 0.0216663C88.0488 -1.5715e-06 87.8855 0.0203149 86.2701 1.66233ZM125.452 6.5938L131.942 13.1876L125.46 19.7976L118.98 26.4077H121.918C124.679 26.4077 125.172 26.0955 130.108 21.2148L135.359 16.0227L140.499 21.2148C145.369 26.1341 145.797 26.4077 148.62 26.4077H151.6L145.11 19.8139L138.621 13.2201L145.102 6.61004L151.583 0H148.579C145.745 0 145.313 0.268139 140.946 4.73984C138.4 7.34675 136.009 9.47832 135.632 9.47764C135.256 9.47629 132.65 7.34336 129.843 4.7378C125.168 0.399497 124.493 0 121.85 0H118.963L125.452 6.5938ZM88.9291 4.93147C88.7418 5.4278 88.6732 9.47291 88.7772 13.9202L88.9658 22.0064H99.6283H110.291V13.2038V4.40128L99.7803 4.21439C91.5048 4.06814 89.1977 4.22049 88.9291 4.93147ZM15.9938 20.9907V26.4077H30.3217H44.6495V20.9907V15.5738H30.3217H15.9938V20.9907Z" fill="#5B5B5B" fill-opacity="0.5"/>
</svg>
