<svg width="167" height="21" viewBox="0 0 167 21" fill="none" xmlns="http://www.w3.org/2000/svg">
<path fill-rule="evenodd" clip-rule="evenodd" d="M0.0763154 0.125386C-0.253091 0.252324 0.200673 0.50365 7.26584 4.10823C10.2011 5.60576 12.8662 6.97734 13.1882 7.15601L13.7737 7.48113L13.3742 7.62969C13.1544 7.7114 12.3134 7.94209 11.5052 8.14225C10.697 8.34256 9.96124 8.5495 9.87014 8.60208C9.7747 8.65721 12.257 10.5118 15.7221 12.9741C19.0318 15.3261 21.971 17.4653 22.2537 17.7277C23.2121 18.6176 26.1737 20.6439 26.3569 20.5351C26.4542 20.4776 30.1893 17.8249 34.6573 14.6405C40.9412 10.162 42.7399 8.81412 42.5995 8.6893C42.4997 8.60053 41.7347 8.3526 40.8997 8.13844C39.0321 7.65953 38.7655 7.53767 39.0391 7.28917C39.2374 7.10908 47.7858 2.71404 50.8511 1.21609C51.8159 0.744668 52.464 0.346319 52.4297 0.245674C52.3865 0.118736 51.2838 0.0654466 48.1222 0.0375995L43.8727 0L40.7594 0.793575C39.0471 1.23008 35.068 2.24629 31.9168 3.05202L26.1874 4.51704L22.3007 3.52471C20.163 2.9788 16.1773 1.96344 13.4437 1.26839L8.47356 0.00438287L4.40602 0.0142788C2.16887 0.0197917 0.220485 0.0696919 0.0763154 0.125386ZM44.1532 1.27051C43.676 1.32804 39.4946 2.52971 34.8612 3.94087C30.2277 5.35217 26.3228 6.50676 26.1835 6.50676C25.976 6.50676 15.3312 3.31494 10.1336 1.69415C9.00209 1.34133 8.55902 1.27659 7.2777 1.27659C6.44362 1.27659 5.7611 1.33002 5.7611 1.39518C5.7611 1.5593 5.78713 1.57019 12.8467 4.34543C21.1368 7.60468 21.2336 7.6444 21.2336 7.78603C21.2336 7.85318 20.5667 8.10776 19.7515 8.35174C18.091 8.84875 17.8942 8.96254 18.2032 9.24738C18.4643 9.4881 25.9659 13.2919 26.1795 13.2919C26.3889 13.2919 34.1257 9.36159 34.3652 9.13358C34.5199 8.98629 34.2803 8.8684 33.0638 8.49281C31.5317 8.0197 31.1136 7.81332 31.3136 7.62842C31.3765 7.57004 34.7782 6.21048 38.8726 4.60708C42.9671 3.00353 46.379 1.63111 46.4546 1.55718C46.5302 1.48325 46.5641 1.39702 46.5295 1.36564C46.3821 1.23135 44.9526 1.1741 44.1532 1.27051ZM58.252 11.1008V17.6739H61.5137H64.7754L71.7444 12.7715C75.5774 10.0753 78.9248 7.71409 79.1833 7.52453C79.4419 7.33511 79.6533 7.21129 79.6533 7.24945C79.6533 7.28776 78.6448 8.55148 77.4122 10.0581C76.1796 11.5645 75.1917 12.8607 75.2167 12.9385C75.2419 13.0162 76.7171 14.1136 78.4949 15.3769L81.7275 17.6739H84.9847H88.2419L87.6711 17.2715C83.2799 14.1748 80.1633 11.9477 79.8686 11.6958L79.5032 11.3835L81.8127 7.95566L84.1223 4.52778H80.5271H76.9322L69.7973 9.55652L62.6624 14.5851L62.6244 9.55652L62.5865 4.52778H60.4192H58.252V11.1008ZM103.429 6.01202C102.64 6.82835 99.6928 9.78622 96.8797 12.5851L91.765 17.6739H95.0142H98.2633L103.158 12.4912L108.053 7.30867L113.266 12.499L118.479 17.6893L121.291 17.6462L124.103 17.6032L117.927 11.0655L111.75 4.52778H108.307H104.864L103.429 6.01202ZM127.662 11.1008V17.6739H129.831H132V11.1008V4.52778H129.831H127.662V11.1008ZM136.777 4.7213C136.893 4.82788 138.55 6.0147 140.459 7.35886C145.163 10.6718 145.147 10.6594 145.153 10.8055C145.156 10.8765 144.259 12.2759 143.16 13.9154C142.061 15.555 141.045 17.0713 140.902 17.2852L140.643 17.6739L144.238 17.6722L147.834 17.6706L154.754 12.7954C158.561 10.1142 161.733 7.92032 161.804 7.92032C161.877 7.92032 161.932 10.0394 161.932 12.7971V17.6739H164.102H166.271V11.1008V4.52778L163.125 4.52792L159.98 4.5282L152.554 9.75809C148.47 12.6347 145.102 14.9881 145.07 14.9881C145.039 14.9881 146.059 13.708 147.338 12.1436C148.617 10.5791 149.61 9.25034 149.544 9.19083C149.478 9.13132 147.97 8.05786 146.193 6.80531L142.963 4.52778H139.764C137.049 4.52778 136.597 4.55704 136.777 4.7213Z" fill="#5B5B5B" fill-opacity="0.5"/>
</svg>
