<svg width="143" height="23" viewBox="0 0 143 23" fill="none" xmlns="http://www.w3.org/2000/svg">
<path fill-rule="evenodd" clip-rule="evenodd" d="M1.77134 0.269091C0.437112 0.839734 0.141435 1.6023 0.0433298 4.72375C-0.0493248 7.6755 -0.0479629 7.68205 0.75786 8.52406C1.20206 8.98792 1.85691 9.4384 2.21336 9.52496C2.5698 9.61124 9.72519 11.2266 18.1142 13.1146C26.5036 15.0022 33.4219 16.6039 33.4886 16.6737C33.5554 16.7434 26.0477 16.8004 16.8051 16.8004H0V19.6479V22.4954H20.729C34.425 22.4954 41.6357 22.3961 41.9821 22.2021C42.9419 21.6657 43.3296 20.3979 43.3296 17.797C43.3296 15.2354 42.9397 13.9215 42.0325 13.4261C41.7717 13.284 34.5683 11.5823 26.025 9.64485L10.4918 6.12217L26.9107 6.04871L43.3296 5.97524V2.98762V0L22.823 0.0179404C11.5442 0.0279067 2.0711 0.140952 1.77134 0.269091ZM47.8716 0.18993C47.5569 0.518534 47.661 19.7615 47.9828 20.7257C48.357 21.8471 49.3083 22.4954 50.5796 22.4954C51.4184 22.4954 53.1066 21.4766 60.9839 16.2161C66.1556 12.7626 70.5227 9.99281 70.6884 10.0612C70.8541 10.1295 75.1415 12.9554 80.2157 16.3405C88.2587 21.7061 89.5804 22.4954 90.5241 22.4954C91.3572 22.4954 91.7899 22.3035 92.4031 21.6631L93.1996 20.8308V10.4154V0H90.4745H87.7493V7.11881C87.7493 11.0342 87.6891 14.2376 87.6155 14.2376C87.542 14.2376 83.9252 11.8639 79.5786 8.96315C75.2317 6.06209 71.3236 3.61493 70.8936 3.52495C69.8836 3.31395 69.9054 3.30142 61.043 9.22654L53.5489 14.2368L53.4761 7.11852L53.4034 0H50.7281C49.2571 0 47.9714 0.0854256 47.8716 0.18993ZM99.0281 0.268237C98.7118 0.407766 98.1904 0.870488 97.87 1.29619C97.2993 2.05392 97.2873 2.28143 97.2873 12.2828V22.4954H100.012H102.738V15.4885C102.738 9.36864 102.789 8.50242 103.147 8.64594C103.373 8.73649 106.837 11.0102 110.846 13.6991C118.755 19.0044 119.491 19.4212 120.476 19.1581C121.163 18.9745 121.541 18.7327 130.847 12.5291C134.019 10.4148 136.718 8.64223 136.844 8.59012C136.971 8.53773 137.074 11.6452 137.074 15.4954V22.4954H139.936H142.797V12.6624C142.797 1.76461 142.731 1.27484 141.146 0.418302C140.634 0.141807 139.96 0.00911164 139.527 0.0996629C139.12 0.184804 134.691 2.99132 129.686 6.33659C124.682 9.68158 120.444 12.5083 120.27 12.6179C120.089 12.7318 115.926 10.1289 110.571 6.553C105.411 3.10779 100.833 0.227231 100.397 0.151772C99.9607 0.0763128 99.3448 0.128708 99.0281 0.268237Z" fill="#5B5B5B" fill-opacity="0.5"/>
</svg>
