<svg width="22" height="22" viewBox="0 0 22 22" fill="none" xmlns="http://www.w3.org/2000/svg">
<mask id="mask0_413_4823" style="mask-type:luminance" maskUnits="userSpaceOnUse" x="0" y="0" width="22" height="22">
<path d="M16.3176 0.871094H5.70329C2.94465 0.871094 0.708336 3.10741 0.708336 5.86604V16.4803C0.708336 19.2389 2.94465 21.4753 5.70329 21.4753H16.3176C19.0762 21.4753 21.3125 19.2389 21.3125 16.4803V5.86604C21.3125 3.10741 19.0762 0.871094 16.3176 0.871094Z" fill="white"/>
</mask>
<g mask="url(#mask0_413_4823)">
<path d="M21.3127 0.871094H0.708504V21.4753H21.3127V0.871094Z" fill="#F90000"/>
<path d="M21.3127 11.1725C27.0024 11.1725 31.6148 6.56013 31.6148 0.870447C31.6148 -4.81924 27.0024 -9.43164 21.3127 -9.43164C15.623 -9.43164 11.0106 -4.81924 11.0106 0.870447C11.0106 6.56013 15.623 11.1725 21.3127 11.1725Z" fill="black"/>
<path d="M13.4356 10.7021H7.34842V8.29336H13.4356C13.7912 8.29336 14.0384 8.35534 14.1625 8.46356C14.2866 8.5718 14.3634 8.77253 14.3634 9.06577V9.93067C14.3634 10.2396 14.2866 10.4404 14.1625 10.5486C14.0384 10.6568 13.7912 10.7031 13.4356 10.7031V10.7021ZM13.8532 6.02241H4.76687V16.3236H7.34842V12.9722H12.106L14.3634 16.3236H17.2542L14.7653 12.9565C15.6829 12.8205 16.0949 12.5393 16.4348 12.0758C16.7746 11.6124 16.945 10.8714 16.945 9.88256V9.11017C16.945 8.52369 16.8829 8.06025 16.7746 7.70505C16.6662 7.34983 16.4811 7.04088 16.2181 6.76336C15.9403 6.50066 15.6311 6.31564 15.2597 6.19169C14.8884 6.08347 14.4245 6.02148 13.8532 6.02148V6.02241Z" fill="white"/>
</g>
</svg>
