<svg width="23" height="17" viewBox="0 0 23 17" fill="none" xmlns="http://www.w3.org/2000/svg">
<path d="M9.32292 11.8366L15.1346 8.47721L9.32292 5.11784V11.8366ZM22.2677 3.06862C22.4133 3.59492 22.5141 4.30039 22.5813 5.19622C22.6596 6.09206 22.6932 6.86471 22.6932 7.53659L22.7604 8.47721C22.7604 10.9296 22.5813 12.7324 22.2677 13.8858C21.9878 14.8936 21.3383 15.5431 20.3305 15.823C19.8042 15.9686 18.8412 16.0694 17.363 16.1366C15.9073 16.215 14.5747 16.2486 13.343 16.2486L11.5625 16.3158C6.87058 16.3158 3.94792 16.1366 2.79453 15.823C1.78672 15.5431 1.13724 14.8936 0.857294 13.8858C0.711721 13.3595 0.61094 12.654 0.543753 11.7582C0.465367 10.8624 0.431773 10.0897 0.431773 9.41784L0.364586 8.47721C0.364586 6.02487 0.543753 4.22201 0.857294 3.06862C1.13724 2.06081 1.78672 1.41133 2.79453 1.13138C3.32084 0.985807 4.28386 0.885026 5.76198 0.817838C7.21771 0.739453 8.55026 0.705859 9.78203 0.705859L11.5625 0.638672C16.2544 0.638672 19.1771 0.817839 20.3305 1.13138C21.3383 1.41133 21.9878 2.06081 22.2677 3.06862Z" fill="#F90000"/>
</svg>
