<svg width="27" height="17" viewBox="0 0 27 17" fill="none" xmlns="http://www.w3.org/2000/svg">
<path fill-rule="evenodd" clip-rule="evenodd" d="M26.3841 1.65727C26.57 1.04586 26.3841 0.595703 25.4939 0.595703H22.5544C21.8064 0.595703 21.4615 0.984271 21.2745 1.41315C21.2745 1.41315 19.7796 4.992 17.6621 7.31669C16.9767 7.99081 16.6654 8.20469 16.2914 8.20469C16.1044 8.20469 15.8234 7.99081 15.8234 7.37828V1.65727C15.8234 0.922682 15.6173 0.595703 14.9947 0.595703H10.3722C9.90526 0.595703 9.62419 0.93612 9.62419 1.25974C9.62419 1.95513 10.6835 2.11638 10.7921 4.07378V8.32675C10.7921 9.25953 10.6208 9.42862 10.2468 9.42862C9.25018 9.42862 6.82583 5.83297 5.3869 1.71885C5.10807 0.918203 4.82589 0.595703 4.07451 0.595703H1.13281C0.292969 0.595703 0.125 0.984271 0.125 1.41315C0.125 2.17685 1.12161 5.9707 4.76654 10.9885C7.19649 14.4151 10.6174 16.2728 13.7338 16.2728C15.6028 16.2728 15.8334 15.8607 15.8334 15.1496V12.5596C15.8334 11.7343 16.0104 11.5697 16.6027 11.5697C17.0395 11.5697 17.7864 11.7847 19.531 13.4364C21.5242 15.3949 21.8523 16.2728 22.9744 16.2728H25.9138C26.7536 16.2728 27.1747 15.8607 26.9328 15.0455C26.6663 14.2348 25.7145 13.0579 24.4525 11.6615C23.7672 10.8664 22.7392 10.0098 22.4268 9.58091C21.9912 9.03109 22.1155 8.78586 22.4268 8.29651C22.4268 8.29651 26.0101 3.34031 26.383 1.65727" fill="#F90000"/>
</svg>
