<svg width="23" height="21" viewBox="0 0 23 21" fill="none" xmlns="http://www.w3.org/2000/svg">
<path fill-rule="evenodd" clip-rule="evenodd" d="M20.2712 0.916693C20.5479 0.800224 20.8508 0.760055 21.1483 0.800366C21.4458 0.840676 21.7271 0.959993 21.9628 1.1459C22.1986 1.3318 22.3802 1.5775 22.4888 1.85741C22.5973 2.13732 22.6289 2.44122 22.5802 2.73747L20.0405 18.1424C19.7941 19.6284 18.1637 20.4806 16.8009 19.7404C15.661 19.1211 13.9679 18.1671 12.4449 17.1716C11.6835 16.6733 9.35096 15.0776 9.63763 13.9421C9.88398 12.9713 13.8033 9.32297 16.0428 7.15393C16.9219 6.30177 16.521 5.81018 15.4829 6.59404C12.9052 8.54023 8.76643 11.4998 7.39804 12.333C6.19091 13.0676 5.56159 13.193 4.80909 13.0676C3.43622 12.8391 2.16302 12.4853 1.12385 12.0541C-0.280367 11.4718 -0.21206 9.54133 1.12273 8.97919L20.2712 0.916693Z" fill="#F90000"/>
</svg>
