<svg width="87" height="35" viewBox="0 0 87 35" fill="none" xmlns="http://www.w3.org/2000/svg">
<path d="M51.6343 25.1773H48.982C48.4371 25.1773 47.9333 24.8849 47.6613 24.4102L44.1285 18.2512L41.7473 14.1002L41.7375 14.0815C41.7189 14.0461 41.6984 14.0116 41.6768 13.9781C41.6514 13.9378 41.626 13.8984 41.5986 13.86C41.5898 13.8462 41.58 13.8334 41.5692 13.8196C41.2317 13.3577 40.7592 13.0692 40.2524 12.9539C40.2387 12.95 40.224 12.947 40.2103 12.9441C40.1947 12.9401 40.1771 12.9372 40.1604 12.9342C40.1458 12.9313 40.1311 12.9283 40.1164 12.9264C40.0616 12.9165 40.0068 12.9096 39.9521 12.9047C39.9325 12.9027 39.9139 12.9017 39.8943 12.8998C39.8806 12.8988 39.8679 12.8978 39.8532 12.8978C39.8376 12.8968 39.8219 12.8958 39.8063 12.8958C39.7828 12.8958 39.7593 12.8948 39.7358 12.8948C39.7124 12.8948 39.6889 12.8948 39.6654 12.8958C39.6488 12.8958 39.6341 12.8968 39.6184 12.8978C39.6047 12.8978 39.591 12.8988 39.5773 12.8998C39.5578 12.9017 39.5392 12.9027 39.5196 12.9047C39.4648 12.9096 39.4101 12.9165 39.3553 12.9264C39.3406 12.9283 39.3259 12.9313 39.3112 12.9342C39.2946 12.9372 39.277 12.9401 39.2614 12.9441C39.2467 12.947 39.233 12.95 39.2193 12.9539C38.7125 13.0692 38.241 13.3577 37.9025 13.8196C37.8917 13.8324 37.8829 13.8462 37.8731 13.86C37.8457 13.8984 37.8203 13.9378 37.7948 13.9781C37.7733 14.0116 37.7528 14.0461 37.7342 14.0815L37.7244 14.1002L35.3431 18.2512L31.8104 24.4102C31.5374 24.8849 31.0346 25.1773 30.4897 25.1773H27.8374L28.9527 23.2333L35.1132 12.493C36.0563 10.8484 37.651 9.95815 39.2975 9.82422H40.1761C41.8226 9.95815 43.4173 10.8484 44.3604 12.493L50.5209 23.2333L51.6362 25.1773H51.6343Z" fill="#5B5B5B"/>
<path d="M25.0501 17.4998C25.4444 17.0576 25.7536 16.5367 25.9551 15.9645C26.1243 15.4849 26.2163 14.9669 26.2163 14.4292C26.2163 13.8915 26.1243 13.3745 25.9561 12.8939C25.7555 12.3217 25.4454 11.8017 25.0511 11.3586C24.9386 11.2315 24.8183 11.1104 24.6911 10.9962C24.2518 10.5993 23.7353 10.2871 23.1659 10.0852C22.6894 9.91484 22.1748 9.82227 21.6407 9.82227H4.64807V11.3576C4.64807 12.2055 5.33094 12.8929 6.17329 12.8929H21.6397C22.482 12.8929 23.1649 13.5803 23.1649 14.4282C23.1649 15.2761 22.482 15.9635 21.6397 15.9635H6.17329C5.33094 15.9635 4.64807 16.6509 4.64807 17.4988V23.6401C4.64807 24.488 5.33094 25.1754 6.17329 25.1754H21.6397C22.1748 25.1754 22.6885 25.0828 23.1649 24.9124C23.7333 24.7106 24.2499 24.3984 24.6901 24.0015C24.8173 23.8873 24.9367 23.7671 25.0501 23.6391C25.4444 23.1959 25.7536 22.676 25.9551 22.1038C26.1243 21.6232 26.2163 21.1062 26.2163 20.5685C26.2163 20.0308 26.1243 19.5137 25.9551 19.0332C25.7545 18.461 25.4444 17.941 25.0501 17.4978V17.4998ZM21.6397 22.1067H7.6985V19.0361H21.6397C22.482 19.0361 23.1649 19.7235 23.1649 20.5714C23.1649 21.4193 22.482 22.1067 21.6397 22.1067Z" fill="#5B5B5B"/>
<path d="M56.2089 9.82324C55.3666 9.82324 54.6837 10.5106 54.6837 11.3586V25.1773H56.2089C57.0513 25.1773 57.7341 24.49 57.7341 23.642V9.82324H56.2089Z" fill="#5B5B5B"/>
<path d="M82.3518 9.82324V11.3586C82.3518 12.2065 81.6689 12.8939 80.8266 12.8939H68.4106C67.0556 12.8939 65.8376 13.4867 65.0011 14.4292C64.6069 14.8714 64.2967 15.3923 64.0962 15.9645C63.9269 16.4441 63.835 16.9621 63.835 17.4998C63.835 18.0375 63.9269 18.5545 64.0952 19.0351C64.2958 19.6073 64.6059 20.1273 65.0002 20.5704C65.8376 21.5129 67.0547 22.1057 68.4106 22.1057H82.3518V23.6411C82.3518 24.489 81.6689 25.1764 80.8266 25.1764H68.4106C66.6937 25.1764 65.1097 24.6052 63.835 23.642L63.834 23.6411C63.2568 23.2048 62.7432 22.6868 62.3098 22.1067C61.9576 21.634 61.6572 21.119 61.4195 20.5714C61.2082 20.0839 61.0448 19.5699 60.9381 19.0361C60.8384 18.5398 60.7855 18.0267 60.7855 17.5008C60.7855 16.9749 60.8384 16.4618 60.9381 15.9655C61.0458 15.4317 61.2082 14.9176 61.4205 14.4302C61.6582 13.8816 61.9576 13.3676 62.3098 12.8949C62.7432 12.3128 63.2578 11.7958 63.835 11.3595C65.1097 10.3954 66.6937 9.82423 68.4106 9.82423H82.3518V9.82324Z" fill="#5B5B5B"/>
</svg>
