<svg width="44" height="43" viewBox="0 0 44 43" fill="none" xmlns="http://www.w3.org/2000/svg">
<path d="M21.6706 40.7047C32.5125 40.7047 41.3016 32.0263 41.3016 21.3211C41.3016 10.6159 32.5125 1.9375 21.6706 1.9375C10.8287 1.9375 2.03955 10.6159 2.03955 21.3211C2.03955 32.0263 10.8287 40.7047 21.6706 40.7047Z" fill="#202020"/>
<path d="M39.262 21.3236C39.262 11.6211 31.315 3.88014 21.6705 3.88014C12.026 3.88014 4.07894 11.6211 4.07891 21.3236C4.07891 31.0261 12.026 38.7672 21.6705 38.7672C31.315 38.7672 39.262 31.0261 39.262 21.3236ZM43.3409 21.3236C43.3409 33.0315 33.7097 42.6473 21.6705 42.6473C9.63125 42.6473 0 33.0315 0 21.3236C3.28871e-05 9.61572 9.63128 9.30181e-06 21.6705 0C33.7097 0 43.3409 9.61572 43.3409 21.3236Z" fill="#F90000"/>
<path d="M30.9084 10.25C31.3596 10.257 31.4817 10.3875 31.4827 10.8555C31.4857 12.5195 31.4855 14.1836 31.4866 15.8809V31.9756C31.453 32.0013 31.4195 32.0272 31.386 32.0527C31.3555 31.9857 31.3361 31.9096 31.2922 31.8535C30.0823 30.3033 28.8641 28.7591 27.6663 27.1992C27.5337 27.0265 27.4545 26.7616 27.4534 26.5391C27.4474 25.377 27.445 24.2149 27.4417 23.0527H16.2561V27.9131C16.3636 27.9207 16.4569 27.9335 16.55 27.9336C17.2931 27.935 18.0366 27.9382 18.7795 27.9307C19.0841 27.9276 19.217 28.0641 19.2161 28.3701C19.2128 29.555 19.2191 30.74 19.2151 31.9248C19.2138 32.2811 19.0953 32.3991 18.7366 32.3994C16.7591 32.4008 14.7815 32.3989 12.804 32.3926C12.3715 32.3912 12.2092 32.2137 12.2073 31.7451C12.2028 30.6156 12.2072 29.4858 12.2073 28.3564C12.2077 24.4808 12.2079 20.6051 12.2083 16.6963V10.6895C12.2416 10.6577 12.2745 10.6255 12.3079 10.5938C12.3403 10.6711 12.3581 10.7604 12.4075 10.8242C13.6229 12.3903 14.8472 13.9498 16.053 15.5234C16.174 15.6816 16.2456 15.9223 16.2463 16.125C16.2496 17.1649 16.2508 18.2052 16.2522 19.2451H27.4309C27.4287 17.9158 27.4273 16.5861 27.425 15.2568C27.4246 15.0702 27.425 14.8831 27.425 14.6357C27.2027 14.6357 27.0017 14.6354 26.801 14.6357C26.1732 14.637 25.5451 14.6405 24.9172 14.6396C24.5473 14.6391 24.4787 14.572 24.4778 14.1934C24.475 13.0729 24.4755 11.9524 24.4778 10.832C24.4788 10.363 24.5925 10.2486 25.0608 10.248C26.5334 10.2465 28.0062 10.2478 29.4788 10.248C29.9552 10.2481 30.4322 10.2424 30.9084 10.25Z" fill="#F90000"/>
</svg>
