<svg width="15" height="16" viewBox="0 0 15 16" fill="none" xmlns="http://www.w3.org/2000/svg">
<path d="M13.4291 12.9348C12.5027 11.334 11.0484 10.2108 9.35856 9.73441C10.1801 9.31679 10.8371 8.63463 11.2235 7.79794C11.61 6.96125 11.7034 6.01879 11.4887 5.12253C11.2739 4.22627 10.7636 3.42845 10.04 2.8577C9.31635 2.28696 8.42159 1.97656 7.49997 1.97656C6.57834 1.97656 5.68358 2.28696 4.95995 2.8577C4.23632 3.42845 3.726 4.22627 3.51128 5.12253C3.29655 6.01879 3.38994 6.96125 3.77639 7.79794C4.16283 8.63463 4.8198 9.31679 5.64137 9.73441C3.95153 10.2102 2.49723 11.3334 1.57086 12.9348C1.54543 12.9748 1.52835 13.0196 1.52065 13.0664C1.51296 13.1131 1.51481 13.161 1.52609 13.207C1.53737 13.2531 1.55785 13.2964 1.58629 13.3343C1.61474 13.3723 1.65057 13.4041 1.69162 13.4278C1.73267 13.4515 1.77809 13.4667 1.82516 13.4724C1.87223 13.4781 1.91997 13.4743 1.96551 13.4611C2.01104 13.4478 2.05344 13.4256 2.09014 13.3955C2.12684 13.3655 2.15709 13.3284 2.17907 13.2864C3.30465 11.3416 5.29333 10.1809 7.49997 10.1809C9.70661 10.1809 11.6953 11.3416 12.8209 13.2864C12.8428 13.3284 12.8731 13.3655 12.9098 13.3955C12.9465 13.4256 12.9889 13.4478 13.0344 13.4611C13.08 13.4743 13.1277 13.4781 13.1748 13.4724C13.2218 13.4667 13.2673 13.4515 13.3083 13.4278C13.3494 13.4041 13.3852 13.3723 13.4136 13.3343C13.4421 13.2964 13.4626 13.2531 13.4738 13.207C13.4851 13.161 13.487 13.1131 13.4793 13.0664C13.4716 13.0196 13.4545 12.9748 13.4291 12.9348ZM4.10153 6.07934C4.10153 5.40719 4.30084 4.75013 4.67427 4.19126C5.04769 3.63239 5.57846 3.19681 6.19944 2.93959C6.82042 2.68237 7.50374 2.61507 8.16297 2.7462C8.8222 2.87733 9.42774 3.201 9.90302 3.67628C10.3783 4.15156 10.702 4.7571 10.8331 5.41633C10.9642 6.07556 10.8969 6.75888 10.6397 7.37986C10.3825 8.00084 9.94691 8.53161 9.38804 8.90503C8.82917 9.27846 8.17211 9.47777 7.49997 9.47777C6.59898 9.47669 5.7352 9.11829 5.09811 8.48119C4.46101 7.8441 4.10261 6.98032 4.10153 6.07934Z" fill="#F80000"/>
</svg>
