<svg width="238" height="238" viewBox="0 0 238 238" fill="none" xmlns="http://www.w3.org/2000/svg">
<path d="M150.191 47.5139C152.164 40.2667 157.256 35.6457 164.776 34.6764C173.12 33.9701 180.869 38.8944 183.068 47.1187C187.157 62.4177 170.731 73.8175 157.623 66.1006C154.671 64.3817 151.445 60.7126 150.583 57.3546C146.328 57.3579 141.827 57.27 137.594 57.3546C136.364 58.4898 135.024 60.4426 133.962 61.832L126.199 72.2036C125.021 73.7548 123.457 76.0925 121.784 77.0854C116.85 80.0153 113.718 74.5297 111.408 71.5021C110.062 69.7367 101.47 57.5949 100.528 57.3546C91.4065 57.0869 81.8298 57.6888 72.683 57.2152C70.2463 57.0892 68.1847 53.8729 68.8309 51.4241C70.0627 46.759 74.2203 47.5064 77.907 47.5092L97.2008 47.512C104.807 47.5125 104.463 46.0325 108.735 51.8662L113.289 58.0863C115.29 60.8721 117.3 63.3348 119.052 66.2926C121.321 62.5297 124.225 58.976 126.769 55.3595C132.296 47.9894 130.121 47.5083 140.244 47.5083L150.191 47.5139ZM165.925 44.2401C161.797 44.5703 158.723 48.1916 159.067 52.3185C159.412 56.4454 163.044 59.5068 167.169 59.148C171.275 58.7914 174.318 55.181 173.975 51.0741C173.633 46.9672 170.032 43.9115 165.925 44.2401Z" fill="#858585" fill-opacity="0.5"/>
<path d="M131.26 179.203L61.7255 179.205C59.3213 179.208 56.1962 179.396 53.8715 179.084C48.6062 178.379 44.3887 173.724 44.5682 168.335C44.8265 160.581 43.7244 148.12 45.6013 141.284C48.5881 130.4 58.6162 125.567 59.1851 124.074C61.9668 116.774 64.7489 109.438 67.445 102.101C72.7772 87.5884 76.7916 88.473 90.5426 88.4707L106.895 88.4754L150.553 88.4688C159.896 88.4628 166.038 89.8336 169.619 99.5656C171.865 105.669 173.847 111.836 176.096 117.931C178.737 125.086 177.808 122.678 182.977 128.071C189.644 135.027 193.476 138.615 193.523 148.866L193.524 161.419C193.543 174.415 192.81 179.246 178.614 179.211L131.26 179.203ZM82.1452 98.2083C78.0462 99.1431 77.5242 102.917 76.2672 106.383L73.4452 114.05C72.7135 116.095 71.7787 118.888 70.9132 120.833H155.548H166.819C164.855 114.938 162.692 109.119 160.487 103.31C158.779 98.8116 158.046 98.3207 153.409 98.2045L95.2775 98.2092C91.1153 98.2087 86.2502 98.0786 82.1452 98.2083ZM146.813 140.051H87.8725C89.625 141.678 92.2862 144.658 94.1028 146.512C95.2319 147.674 96.3522 148.798 97.5059 149.935C99.1701 150.008 100.986 149.943 102.672 149.938L140.087 149.935C143.15 146.644 146.543 143.177 149.792 140.051C148.585 139.986 147.996 139.966 146.813 140.051ZM168.101 144.926C163.235 145.29 159.578 149.52 159.922 154.387C160.266 159.255 164.481 162.928 169.35 162.604C174.247 162.278 177.945 158.034 177.599 153.138C177.254 148.243 172.995 144.561 168.101 144.926ZM68.3468 144.984C63.4515 145.342 59.776 149.605 60.1409 154.499C60.5058 159.394 64.7726 163.064 69.6669 162.693C74.5519 162.322 78.214 158.065 77.8496 153.179C77.4856 148.293 73.2327 144.626 68.3468 144.984ZM107.951 159.605H99.9571C99.9552 162.77 99.898 166.102 99.9571 169.253H129.517H137.594V159.605C134.711 159.48 130.776 159.604 127.809 159.605H107.951Z" fill="#858585" fill-opacity="0.5"/>
<path d="M48.9279 123.654C40.6275 123.674 35.7344 125.799 35.3521 115.627C35.1858 111.202 35.539 106.365 41.0505 106.66C49.8878 106.664 54.2513 104.223 54.3555 115.557C54.3954 119.942 54.1054 123.313 48.9279 123.654Z" fill="#858585" fill-opacity="0.5"/>
<path d="M197.602 123.654C196.294 123.828 194.52 123.585 193.195 123.651C188.059 123.889 183.831 124.061 183.86 117.432C183.881 112.856 182.735 107.479 189.023 106.659C193.267 106.49 202.834 105.272 202.741 111.788C202.675 116.385 204.158 123.066 197.602 123.654Z" fill="#858585" fill-opacity="0.5"/>
<path d="M78.5324 196.616C75.0451 199.49 72.3323 198.653 68.1329 198.731C58.4618 198.909 52.9371 199.709 53.1012 188.641H80.7664C80.7822 192.251 80.9365 193.783 78.5324 196.616Z" fill="#858585" fill-opacity="0.5"/>
<path d="M182.53 196.615C178.682 200.149 171.834 198.255 167.029 198.731C160.379 199.39 157.139 195.723 157.222 189.531H184.672L184.708 190.773C184.759 193.348 184.354 194.725 182.53 196.615Z" fill="#858585" fill-opacity="0.5"/>
</svg>
