<svg width="218" height="217" viewBox="0 0 218 217" fill="none" xmlns="http://www.w3.org/2000/svg">
<path d="M50.5455 37.4055C50.543 36.2174 50.4285 30.0997 50.7064 29.4192L50.9576 29.3281L158.279 29.3432C166.946 29.4229 170.607 35.1294 171.049 42.8143L171.052 68.7003C171.049 69.33 171.266 71.0408 171.004 71.4546L170.618 71.4783H162.64L162.615 43.2501C162.559 37.138 158.104 37.4022 153.467 37.4019L50.5455 37.4055Z" fill="#535353"/>
<path d="M38.8607 57.982L38.1279 58.0345C35.3062 58.2113 32.1461 58.3692 32.0044 54.5735C31.8274 49.8354 33.354 49.6438 37.4869 49.6928H138.534C139.416 50.939 141.131 52.8187 142.173 54.0289C141.058 55.3153 139.758 56.798 138.534 57.982C137.032 58.0459 135.207 57.993 133.68 57.982C133.581 59.0699 133.677 61.7421 133.678 62.9883L133.681 108.892C133.683 122.77 134.688 117.47 126.17 128.812L115.189 143.575C112.586 147.118 109.967 150.803 107.254 154.255C105.543 156.418 100.591 162.797 99.6292 164.838C97.9627 168.375 102.61 182.798 95.8266 183.324C90.3873 183.746 83.2435 183.511 77.7177 183.406C72.4359 183.306 73.598 177.723 73.6052 174.33L73.6027 168.065C73.5967 166.925 73.5286 165.472 73.6061 164.376C73.0178 163.66 72.3533 163.039 71.739 162.238L46.1799 128.614C37.9035 117.978 38.853 120.2 38.8588 106.669L38.8607 57.982ZM65.8804 57.982H64.7004V113.531H72.7811C74.3497 113.431 73.6103 108.425 73.6103 106.745L73.6061 57.982H65.8804ZM82.0354 57.982V113.531H90.7827C90.8938 111.955 90.787 109.193 90.7849 107.543L90.7827 57.982H82.0354ZM99.1891 57.982V113.531C100.006 113.531 107.673 113.688 107.899 113.531V57.982H99.1891ZM116.261 57.982V113.743H125.117C125.223 107.681 125.116 101.309 125.116 95.2166L125.117 57.982H116.261ZM47.4893 57.982V113.531H56.1838V57.982H47.4893ZM52.0755 122.06C52.5408 123.192 56.1268 127.369 57.1433 128.708L75.3973 152.972C76.6024 154.563 78.1851 156.553 79.0952 158.29H93.4833C97.3548 153.337 101.437 147.887 105.117 142.765L117.017 126.985C118.212 125.404 119.4 123.545 120.571 122.06C118.669 122.122 116.57 122.063 114.649 122.061L57.9929 122.057C56.2515 122.053 53.7391 121.962 52.0755 122.06ZM82.0354 166.813C81.9911 169.539 82.0295 172.355 82.0354 175.088C84.7538 175.089 88.436 175.208 91.0688 175.088V166.813H82.0354Z" fill="#535353"/>
<path d="M162.64 110.857C162.402 102.442 162.773 93.9976 162.64 85.5781H171.069V110.857C173.847 107.566 177.528 104.625 180.192 101.554C181.633 103.129 183.448 104.675 184.861 106.334C185.964 107.629 186.806 106.478 184.776 108.552C179.482 113.963 173.991 119.186 168.691 124.584C168.105 125.173 167.255 125.977 166.822 126.652C165.524 125.395 164.307 124.058 163.025 122.786L150.905 110.815C149.638 109.574 148.479 108.197 147.174 107.002C148.374 105.793 151.802 102.363 153.01 101.554C155.93 103.417 160.128 108.275 162.64 110.857Z" fill="#535353"/>
</svg>
