<svg width="218" height="218" viewBox="0 0 218 218" fill="none" xmlns="http://www.w3.org/2000/svg">
<path d="M32.2328 71.7764C42.2811 72.25 50.4518 64.3864 52.0199 54.9543C53.4397 46.4134 48.6345 40.0983 44.5387 33.1767C40.6857 26.6656 36.5686 20.5428 32.2328 14.3828C32.0614 14.5859 31.6652 15.2998 31.4785 15.5867C25.1474 25.2962 18.4201 35.0045 13.7168 45.6222C8.56178 57.2605 19.6133 72.5402 32.2328 71.7764Z" fill="#858585" fill-opacity="0.5"/>
<path d="M22.9055 108.373C24.885 104.708 32.3936 96.9435 35.4391 93.5967C38.2875 90.4667 40.1416 86.7811 44.7895 86.2368C50.0458 86.0527 55.7155 86.2418 61.0071 86.2409L112.2 86.2364C115.182 86.2318 118.36 86.1509 121.325 86.3451C124.396 86.546 127.076 90.4221 129.124 92.2886C131.232 94.2096 146.056 109.243 147.489 109.789C152.311 111.628 159.395 113.389 164.471 114.842C169.492 116.278 174.953 117.009 178.867 120.487C184.685 125.656 183.895 142.451 184.278 150.345C184.677 158.555 173.495 156.515 167.741 156.505C167.942 134.12 136.97 129.924 127.531 147.789C126.146 150.404 125.709 152.665 125.379 155.509H66.0065C64.6521 137.909 39.4267 129.013 27.1548 144.861C24.4114 148.405 23.6138 151.076 22.9055 155.509C22.4095 155.581 19.4859 155.613 18.7989 155.517C13.2233 154.744 7.53842 158.239 7.46417 150.271C7.4227 145.824 7.51457 141.389 7.46408 136.951H19.2833V127.129C15.8818 126.971 10.9798 127.125 7.46408 127.129L7.439 114.687C7.41999 106.295 16.3737 108.368 22.9055 108.373ZM76.8271 95.7496H46.816C44.0227 99.3961 38.4694 105.706 35.126 108.906C35.5531 109.228 35.9887 109.565 36.421 109.878C37.9759 110.902 46.7134 110.351 49.206 110.351L76.8271 110.352C76.8266 109.149 76.8613 95.7859 76.8271 95.7496ZM86.5123 95.7496V110.352L127.859 110.358C129.413 110.361 131.523 110.439 133.02 110.352C132.943 109.624 120.175 97.245 118.679 95.7496H86.5123Z" fill="#858585" fill-opacity="0.5"/>
<path d="M148.65 168.582C141.845 169.496 135.556 164.943 134.596 158.409C133.635 151.874 138.366 145.827 145.168 144.895C151.984 143.961 158.294 148.517 159.257 155.064C160.219 161.612 155.468 167.667 148.65 168.582Z" fill="#858585" fill-opacity="0.5"/>
<path d="M45.5248 168.627C39.0532 169.339 33.1997 164.892 32.4312 158.678C31.6626 152.465 36.2679 146.824 42.7329 146.059C49.237 145.289 55.1529 149.745 55.9266 155.997C56.6999 162.247 52.0354 167.911 45.5248 168.627Z" fill="#858585" fill-opacity="0.5"/>
</svg>
