<svg width="218" height="217" viewBox="0 0 218 217" fill="none" xmlns="http://www.w3.org/2000/svg">
<path d="M148.462 41.2321C149.62 39.7073 156.327 32.6556 157.662 32.4063C160.511 32.2164 162.578 35.4931 164.307 37.3597C165.645 38.8042 167.156 40.2258 168.431 41.7127C168.51 44.0436 168.436 46.8661 168.436 49.2306L168.431 63.8891H159.178C155.812 63.8878 151.771 64.0118 148.462 63.8891C148.395 57.1686 147.878 47.7001 148.462 41.2321Z" fill="#535353"/>
<path d="M38.3669 44.8427C42.3548 38.1927 47.904 33.7534 55.7655 32.9015C63.5573 32.091 70.751 35.7262 75.5453 41.7603C78.1023 44.9785 82.5528 44.3666 86.1193 44.3616L139.674 44.3569C139.597 46.3597 139.669 48.8402 139.669 50.8908L139.674 63.8914H85.1132C78.5411 63.8596 78.0756 63.2169 73.3148 68.3975C64.8085 77.6544 49.9485 76.9579 42.0322 67.3346C40.6596 65.6661 39.5333 63.7742 38.3669 61.9305C44.0399 62.0143 49.7386 61.8611 55.4152 61.9457C67.0611 62.1184 67.4338 47.4971 58.6621 45.155C56.5608 44.6129 52.7734 44.838 50.5051 44.8393L38.3669 44.8427Z" fill="#535353"/>
<path d="M148.462 94.4218C146.874 91.4373 138.602 83.9103 135.829 80.7434C133.574 78.166 135.868 73.9755 139.674 73.6873C141.114 73.5963 142.891 73.6839 144.357 73.6831L174.245 73.686C176.462 73.6873 180.138 73.2874 181.7 74.9445C185.316 78.7808 181.459 81.6849 179.085 84.2128L174.056 89.6762C172.637 91.2219 171.052 92.9763 169.555 94.4218H148.462Z" fill="#535353"/>
<path d="M43.7028 123.552C45.4695 120.141 52.1709 112.914 54.889 109.8C57.4312 106.887 59.086 103.457 63.2342 102.95C67.9255 102.779 72.9857 102.955 77.7084 102.954L123.398 102.95C126.06 102.945 128.896 102.87 131.542 103.051C134.283 103.238 136.675 106.845 138.502 108.582C140.384 110.37 153.614 124.362 154.893 124.87C159.197 126.581 165.519 128.22 170.05 129.572C174.531 130.909 179.405 131.589 182.898 134.826C188.091 139.636 187.386 155.267 187.728 162.613C188.083 170.254 178.103 168.356 172.968 168.346C173.148 147.514 145.505 143.609 137.081 160.235C135.845 162.669 135.455 164.773 135.16 167.42H82.1703C80.9615 151.04 58.4479 142.761 47.4952 157.51C45.0468 160.808 44.3349 163.294 43.7028 167.42C43.2601 167.487 40.6508 167.516 40.0377 167.428C35.0614 166.708 29.9877 169.96 29.9214 162.545C29.8844 158.406 29.9664 154.279 29.9213 150.148H40.47V141.007C37.4342 140.86 33.0592 141.003 29.9213 141.007L29.899 129.428C29.882 121.618 37.8731 123.547 43.7028 123.552ZM91.8277 111.803H65.0429C62.5499 115.197 57.5936 121.069 54.6096 124.048C54.9908 124.347 55.3795 124.661 55.7654 124.952C57.153 125.905 64.9513 125.392 67.1759 125.392L91.8277 125.394C91.8273 124.274 91.8582 111.837 91.8277 111.803ZM100.472 111.803V125.394L137.373 125.399C138.76 125.402 140.643 125.474 141.98 125.394C141.911 124.716 130.515 113.195 129.18 111.803H100.472Z" fill="#535353"/>
<path d="M155.86 179.578C149.974 180.399 144.534 176.307 143.703 170.435C142.873 164.561 146.965 159.126 152.848 158.289C158.743 157.45 164.202 161.544 165.034 167.429C165.867 173.314 161.757 178.756 155.86 179.578Z" fill="#535353"/>
<path d="M64.0763 179.619C58.2356 180.287 52.9528 176.116 52.2592 170.29C51.5656 164.463 55.7218 159.173 61.5566 158.456C67.4266 157.734 72.7658 161.913 73.464 167.775C74.1619 173.636 69.9522 178.947 64.0763 179.619Z" fill="#535353"/>
</svg>
