<svg width="218" height="218" viewBox="0 0 218 218" fill="none" xmlns="http://www.w3.org/2000/svg">
<path d="M113.64 54.4344C115.32 54.3298 118.287 54.4305 120.083 54.4314L133.166 54.4378C140.381 54.4412 144.309 55.7194 144.058 46.2779C143.78 35.822 146.478 33.0068 133.739 33.0048L123.933 33.0089H117.964C115.71 35.799 111.3 39.4792 108.581 42.3878C105.419 39.1938 102.211 36.1638 99.0196 33.0089C94.3207 32.9498 89.5801 33.0422 84.8663 33.0036C80.7627 33.1409 73.2129 31.5078 73.4363 37.9494C73.5783 42.0556 73.2307 46.3608 73.6093 50.4371C73.9934 54.5755 78.0064 54.4208 80.9276 54.4433C88.4197 54.5364 95.9962 54.286 103.479 54.4344V64.3998H82.7545V71.6807C85.3645 74.2526 88.0877 76.8657 90.7855 79.3363C91.6687 78.2184 92.8405 76.9354 93.7864 75.8192C97.0625 75.7141 100.892 75.8153 104.232 75.8162L124.98 75.8192C124.872 76.9052 124.974 80.0295 124.98 81.2035C126.507 82.3997 128.817 83.4564 130.526 84.6276C154.355 100.946 157.472 136.637 133.578 154.921C130.928 156.949 127.864 158.668 124.98 160.344V169.469H91.9226V160.017C73.6021 151.373 64.774 132.512 67.423 112.907L61.1778 106.962C59.9809 105.813 58.7217 104.506 57.4748 103.447C51.2224 104.937 44.9797 103.907 38.8918 102.333V129.007C38.8842 134.313 38.1571 138.965 41.755 143.185C46.1855 148.673 52.8653 146.916 58.9702 147.235C61.4076 147.361 63.5258 149.881 65.2298 151.571L71.029 157.409C74.1533 160.562 78.1264 164.179 80.9132 167.51C80.9144 171.15 79.2597 180.391 85.3204 180.083L127.406 180.089C130 180.091 136.398 180.876 136.252 176.618C136.15 173.639 136.123 170.504 136.122 167.51C138.181 165.812 140.109 163.661 141.988 161.759C146.57 157.12 151.627 151.885 156.419 147.492H167.043V137.461H177.373C177.308 140.47 177.059 146.95 177.507 149.714C178.551 156.157 188.37 155.462 188.411 148.938C188.467 145.271 188.444 141.621 188.442 137.961L188.443 102.249C188.443 99.4713 188.48 96.8234 188.323 94.0121C188.158 89.2231 182.498 86.9124 179.038 90.2666C176.477 92.75 177.441 100.93 177.373 104.668H167.043C167.1 103.665 167.048 102.099 167.047 101.061L167.043 93.6503H155.676C155.187 92.9928 154.062 91.8685 153.461 91.2434L136.122 73.5488V64.3998H113.64V54.4344ZM173.26 115.252C176.168 115.759 178.116 118.534 177.613 121.45C177.11 124.367 174.346 126.324 171.437 125.822C168.524 125.32 166.57 122.543 167.074 119.622C167.577 116.7 170.348 114.743 173.26 115.252Z" fill="#858585" fill-opacity="0.5"/>
<path d="M72.0496 75.1514C71.9334 73.3965 72.1471 71.5365 72.0326 69.739C71.2139 56.8819 60.4635 48.4843 48.2135 48.1114C46.9556 48.0383 47.4177 49.9659 47.416 51.0145C46.2645 51.9904 45.0345 53.352 43.8508 54.4326C44.541 55.3617 46.295 57.0346 47.1989 57.9523L55.5009 66.2257C52.7285 69.3716 48.8202 73.1341 45.807 76.2566C41.619 73.1639 37.4347 67.9619 33.3442 64.398C31.9544 65.9612 30.3818 67.4593 28.8263 68.8566C27.3322 82.5251 38.3429 94.6673 52.1608 93.7365C59.17 93.2645 58.9291 91.5218 64.5464 96.8986L69.5163 101.636C75.3494 107.165 81.7121 112.914 87.3107 118.608C87.1916 126.877 88.4067 130.119 93.7865 136.42C104.941 146.11 122.399 143.288 128.069 129.309C135.103 111.965 118.277 94.1915 100.566 101.812C97.8741 99.4968 95.44 97.1159 92.8415 94.7065L72.0496 75.1514ZM109.062 115.12C112.126 115.449 114.341 118.211 114.004 121.283C113.667 124.355 110.907 126.568 107.846 126.222C104.796 125.878 102.598 123.122 102.934 120.062C103.269 117.002 106.011 114.791 109.062 115.12Z" fill="#858585" fill-opacity="0.5"/>
</svg>
