<svg width="218" height="218" viewBox="0 0 218 218" fill="none" xmlns="http://www.w3.org/2000/svg">
<path d="M71.1594 150.58C69.2741 152.324 67.4849 154.198 65.623 155.969C63.913 157.591 61.3509 161.573 58.7287 158.873C57.106 157.201 43.694 144.052 43.525 143.247C43.1892 141.646 45.0192 140.166 45.9651 139.187L50.1742 134.885C53.46 131.55 52.7496 131.59 50.519 127.479C48.9129 124.519 47.6031 121.353 46.6087 118.138C45.902 115.854 45.8186 113.63 43.0938 112.913C40.258 112.167 31.0139 113.976 30.057 111.425C29.7352 110.566 29.8006 92.5538 29.9206 90.4875C30.2535 84.7502 39.1467 88.85 43.1573 87.5092C45.8744 86.6009 45.9608 83.6812 46.6415 81.353C47.5081 78.3882 52.389 69.8818 51.9335 68.3186C51.0426 65.2607 43.8796 60.9284 43.1436 58.3514C42.6401 56.5897 44.2751 55.5308 45.3538 54.4341C49.763 49.9521 54.6379 44.7519 59.2331 40.6368C62.5245 37.689 67.4168 46.6859 70.709 48.5688C72.1998 49.4219 74.2814 47.6052 75.5375 46.9308C78.4317 45.3774 81.5069 44.0201 84.5858 42.8749C86.7734 42.0612 89.3973 42.0033 90.1537 39.3663C91.0728 36.1627 88.7818 27.2231 91.7964 26.5739C94.7698 26.3125 97.8883 26.5746 100.879 26.5741L108.934 26.5657C113.573 26.5612 115.766 25.3673 115.73 30.7253L115.678 36.3456C115.623 42.4577 116.738 41.3777 121.685 42.9948C124.523 43.9227 127.428 45.1844 130.07 46.5694C131.31 47.2196 132.655 48.5272 134.039 48.7517C137.153 49.2569 141.74 40.6976 145.046 40.1069C146.89 39.7774 148.24 41.7279 149.379 42.866L159.264 52.7187C163.07 56.4987 165.186 57.054 160.791 61.3256L157.024 65.0056C153.042 68.9148 154.288 68.6975 156.304 73.2114C157.491 75.7756 160.943 86.5698 162.313 87.5338C166.528 87.5874 170.887 87.4037 175.101 87.6278C177.777 87.7703 176.863 94.9462 176.863 96.9103L176.859 111.726C174.677 114.764 164.465 111.692 161.875 113.372C160.936 113.981 159.22 121.08 158.563 122.672C158.035 123.955 157.104 125.307 156.823 126.647C151.62 121.728 145.302 115.319 140.645 110.044C150.235 69.838 102.934 44.2582 75.8632 72.562C60.0049 89.1425 61.4965 112.56 77.6842 127.926C86.4005 135.35 97.7977 139.14 109.18 137.346C110.093 137.202 111.491 137.023 112.276 136.535C117.446 141.228 124.693 148.196 129.269 153.51C126.661 154.962 123.598 155.999 120.766 156.931C119.116 157.474 116.28 157.432 116.15 159.614C115.905 163.719 116.132 167.861 116.046 171.973C115.576 172.877 114.988 173.534 113.896 173.542C107.078 173.591 100.222 173.606 93.4063 173.523C92.0493 173.506 90.6735 173.262 90.5062 171.73C90.2499 169.391 90.7275 160.378 90.2078 159.141C89.7434 158.253 80.6793 155.193 78.8485 154.38C76.2501 153.227 73.7633 151.585 71.1594 150.58Z" fill="#858585" fill-opacity="0.5"/>
<path d="M115.703 94.0336C114.61 92.2706 113.203 90.8716 111.911 89.2689C108.684 85.2669 105.245 81.285 102.313 77.0781C103.611 77.1598 105.366 77.0909 106.692 77.0875C117.595 77.056 126.409 85.0547 128.801 95.4616C129.634 99.0851 129.586 105.665 127.484 108.992C130.074 111.312 133.187 114.557 135.698 117.038L159.292 140.608C160.211 141.513 161.843 143.22 162.84 143.862C166.428 144.002 168.657 143.273 172.448 144.303C191.172 149.395 194.182 174.389 177.61 184.181C167.403 190.211 154.013 185.97 148.328 175.886C145.197 169.911 145.029 165.351 146.649 158.871C139.291 151.639 132.189 144.216 124.908 136.964L117.072 129.146C115.743 127.825 113.378 125.602 112.276 124.198C91.8807 128.799 74.5623 110.288 83.4675 90.3247C87.7069 96.0063 93.7941 101.392 97.5712 107.272C102.648 102.655 110.131 98.2507 115.703 94.0336ZM161.293 157.067C160.168 157.148 159.443 157.286 159.366 158.595C159.226 160.958 158.942 171.783 159.703 173.27C160.627 173.783 163.983 173.574 165.16 173.571L173.385 173.568C174.335 173.625 175.087 173.176 174.991 172.235C173.232 154.99 181.041 157.046 161.293 157.067Z" fill="#858585" fill-opacity="0.5"/>
</svg>
