<svg width="218" height="218" viewBox="0 0 218 218" fill="none" xmlns="http://www.w3.org/2000/svg">
<path d="M36.1607 51.7689C32.4975 52.104 28.8304 48.3844 30.9642 44.6372C31.5289 43.6456 33.2938 42.0593 34.1586 41.1921L42.7003 32.5433C44.1011 31.1074 45.3162 29.4312 47.3602 29.0547C52.9325 29.103 54.7357 34.3721 51.0467 38.037C48.29 40.7638 39.3584 50.6216 36.1607 51.7689Z" fill="#858585" fill-opacity="0.5"/>
<path d="M137.724 178.292C72.4502 205.169 7.42119 137.007 38.0426 70.7472C41.0816 64.1714 41.0559 64.4894 47.8565 64.4996L64.3243 64.5098C72.251 64.5664 70.7034 62.965 70.6971 56.0565L70.6835 35.0544C70.6848 32.1843 70.5389 30.0843 73.9978 29.6618L133.87 29.6602C136.585 29.6598 139.273 29.6401 142.014 29.6927C147.424 29.4632 146.369 34.0376 146.373 37.7352L146.345 60.9221C146.335 65.3982 150.468 64.5052 153.588 64.5022L166.488 64.503C177.045 64.4958 175.952 63.829 180.238 73.4624C198.578 114.685 178.691 160.757 137.724 178.292ZM106.44 76.5424C83.5033 79.0037 66.0969 98.5961 71.9016 122.102C72.9705 126.432 78.8247 124.748 83.1481 124.776C87.4688 124.766 90.0979 125.496 91.5683 120.535C89.247 114.944 89.138 108.513 92.2195 103.173C91.6819 102.549 89.64 100.511 88.8391 99.9743C84.5718 97.1141 86.6111 91.0894 91.6331 91.4193C93.8751 91.5665 96.3575 94.72 98.1747 96.3398C101.974 93.9755 105.7 92.9472 110.155 93.3635C113.155 93.1824 117.028 94.6363 119.445 96.3398C127.653 85.7356 133.025 95.4238 129.134 99.2131C127.81 100.524 126.337 101.81 125.085 103.173C130.835 112.25 124.636 119.329 126.416 122.597C128.374 126.191 134.096 124.384 137.485 124.784C140.706 125.164 144.674 124.564 145.097 120.799C150.437 97.3285 129.997 74.9613 106.44 76.5424ZM163.851 87.6386C157.93 88.3083 159.278 92.7295 160.064 96.6927C163.907 116.073 155.043 137.252 139.142 148.709C137.093 150.185 134.256 151.075 134.669 154.207C134.99 156.636 136.813 157.984 139.076 158.413C140.336 158.401 141.117 158.172 142.179 157.474C163.592 143.404 175.164 115.426 168.025 90.4626C167.522 88.7029 165.635 87.6794 163.851 87.6386ZM52.9061 88.0595C48.9139 88.6289 48.682 91.2794 48.0337 94.5593C43.3348 118.332 53.8507 141.85 73.0909 156.06C74.2301 156.902 76.534 158.676 77.864 158.912C80.7886 158.446 84.4107 153.064 79.9415 150.117C62.8238 138.83 53.5493 117.766 57.1234 97.493C57.8217 93.5332 59.1055 88.0072 52.9061 88.0595ZM107.992 106.03C105.308 106.374 103.408 108.833 103.746 111.526C104.085 114.218 106.533 116.128 109.218 115.793C111.91 115.458 113.82 112.995 113.481 110.296C113.142 107.596 110.683 105.686 107.992 106.03Z" fill="#858585" fill-opacity="0.5"/>
<path d="M182.096 51.7681C179.556 51.871 178.658 50.7973 176.993 49.1401L168.188 40.2783C166.861 38.926 164.885 37.3431 164.629 35.3971C164.216 32.2556 166.123 30.0853 169.18 29.6641C171.73 29.7812 172.181 30.2785 173.852 32.0393C177.579 35.9665 181.554 39.6601 185.245 43.6265C187.891 46.9315 186.349 50.9283 182.096 51.7681Z" fill="#858585" fill-opacity="0.5"/>
</svg>
