<svg width="218" height="217" viewBox="0 0 218 217" fill="none" xmlns="http://www.w3.org/2000/svg">
<path d="M42.6241 64.9788C46.5667 63.469 49.9386 61.6795 52.1234 57.9206C56.5205 50.3555 54.6265 41.2223 47.1484 36.6172C46.7287 37.6145 47.5983 48.9129 46.8109 51.9567C45.5606 56.7904 39.6601 59.3699 35.2486 57.0337C30.0532 54.2819 30.7277 49.3272 30.7261 44.3848L30.7316 36.6172C18.6995 43.7788 21.5796 60.4849 35.294 64.9788V115.788V142.096H42.6241V64.9788Z" fill="#535353"/>
<path d="M121.963 174.395C159.641 176.55 191.932 147.805 194.077 110.2C196.222 72.5948 167.408 40.3776 129.729 38.2513C92.0702 36.1261 59.8123 64.8642 57.6682 102.449C55.5242 140.034 84.3059 172.24 121.963 174.395ZM128.549 56.5014C156.08 57.9757 177.184 81.4725 175.654 108.947C174.124 136.421 150.541 157.439 123.016 155.86C95.5664 154.284 74.5769 130.825 76.1024 103.425C77.6283 76.0253 101.093 55.0314 128.549 56.5014Z" fill="#535353"/>
<path d="M152.589 73.7515C146.177 68.5623 138.974 65.5579 130.816 64.5758L130.529 64.5195L130.408 64.6351C130.477 70.4835 130.423 76.4322 130.423 82.2882C133.121 82.8548 137.909 84.3862 139.794 86.4139C141.891 84.412 143.891 82.4172 145.944 80.3717C148.159 78.2801 150.429 75.9231 152.589 73.7515Z" fill="#535353"/>
<path d="M122.037 82.2905C122.154 76.5491 122.039 70.3563 122.037 64.5781C115.086 64.7233 105.051 69.2252 99.8311 73.7538C101.545 75.6432 104.144 78.097 105.985 79.9471C107.988 81.9393 110.635 84.3618 112.455 86.4162C114.488 84.3682 119.148 82.4492 122.037 82.2905Z" fill="#535353"/>
<path d="M106.617 91.874C103.444 88.6001 97.3367 81.7759 93.782 79.2031C93.358 79.9898 93.0498 80.4315 92.4885 81.1293C87.5614 87.2494 85.4877 94.5869 84.3816 102.211H97.1891H102.791C103.432 98.3542 104.486 95.1937 106.617 91.874Z" fill="#535353"/>
<path d="M167.579 101.749C166.218 92.3619 164.251 86.8808 158.015 79.2031C157.489 79.8924 156.386 80.9634 155.753 81.6121L147.957 89.4866C147.245 90.1992 146.202 91.2998 145.419 91.874C147.558 95.3126 149.096 97.4842 149.685 101.749H154.911H167.579Z" fill="#535353"/>
<path d="M124.604 121.341C133.235 122.231 140.953 115.966 141.839 107.352C142.725 98.7366 136.442 91.0377 127.81 90.1601C119.187 89.2829 111.482 95.546 110.597 104.152C109.713 112.758 115.982 120.452 124.604 121.341Z" fill="#535353"/>
<path d="M158.015 132.524C163.024 127.765 167.298 116.864 167.579 109.938C161.832 109.936 155.345 110.097 149.685 109.938C149.168 113.381 147.595 116.965 145.419 119.684C147.647 121.65 149.661 124.029 151.922 126.098C153.053 127.216 157.458 131.353 158.015 132.524Z" fill="#535353"/>
<path d="M102.791 109.938C100.022 109.93 97.1374 110.006 94.3866 109.938H84.3816C85.355 118.432 88.5705 126.258 93.782 133.029C94.1242 132.578 94.6719 132.05 95.0764 131.633C97.742 128.907 104.766 122.837 106.617 120.007C105.396 116.293 103.649 114.855 102.791 109.938Z" fill="#535353"/>
<path d="M152.589 138.37C148.545 134.006 143.894 129.769 139.794 125.461C136.932 127.355 133.789 128.675 130.423 129.349V147.842C133.957 146.874 136.763 146.675 140.469 145.305C144.942 143.674 148.834 141.252 152.589 138.37Z" fill="#535353"/>
<path d="M122.038 129.349C118.285 128.645 115.716 127.24 112.456 125.461L112.387 125.472C108.591 129.799 103.54 134.269 99.3793 138.37C104.096 142.011 106.385 142.569 111.102 145.221L111.252 145.305C114.883 146.257 118.321 147.261 122.038 147.842V129.349Z" fill="#535353"/>
<path d="M29.3156 173.621C31.279 174.695 43.911 174.258 46.4159 174.149C50.7252 173.961 50.1308 169.818 50.1325 166.862L50.1295 153.433C50.1278 151.755 50.7829 149.99 49.2565 149.954C46.9921 149.885 44.3549 149.949 42.0659 149.949L27.7121 149.954L27.7091 163.533C27.7095 166.588 26.8569 171.645 29.3156 173.621Z" fill="#535353"/>
</svg>
