<svg width="584" height="415" viewBox="0 0 584 415" fill="none" xmlns="http://www.w3.org/2000/svg">
<g clip-path="url(#clip0_525_939)">
<path d="M292.27 539.424C438.047 539.424 556.224 424.614 556.224 282.99C556.224 141.366 438.047 26.5566 292.27 26.5566C146.492 26.5566 28.3145 141.366 28.3145 282.99C28.3145 424.614 146.492 539.424 292.27 539.424Z" fill="#0B0B0B"/>
<path d="M528.801 283.011C528.801 154.652 421.946 52.244 292.268 52.244C162.59 52.2442 55.7358 154.652 55.7354 283.011C55.7354 411.37 162.59 513.779 292.268 513.779C421.946 513.779 528.801 411.37 528.801 283.011ZM583.645 283.011C583.645 437.899 454.146 565.111 292.268 565.111C130.391 565.111 0.891113 437.899 0.891113 283.011C0.891555 128.122 130.392 0.912232 292.268 0.912109C454.145 0.912109 583.645 128.122 583.645 283.011Z" fill="#5B5B5B" fill-opacity="0.5"/>
<path d="M397.257 136.483C403.663 136.484 410.072 136.412 416.475 136.512C422.543 136.605 424.188 138.328 424.2 144.52C424.241 166.535 424.237 188.55 424.252 211.004V423.929C423.801 424.269 423.352 424.609 422.901 424.947C422.491 424.06 422.234 423.048 421.645 422.306C405.376 401.797 388.993 381.38 372.887 360.743C371.102 358.458 370.035 354.955 370.02 352.008C369.94 336.632 369.883 321.256 369.838 305.879H219.46C219.464 325.288 219.463 344.697 219.465 364.106C219.466 365.997 219.466 367.891 219.466 370.176C220.914 370.278 222.168 370.443 223.423 370.444C233.414 370.462 243.406 370.514 253.396 370.414C257.491 370.372 259.278 372.173 259.266 376.221C259.222 391.898 259.303 407.573 259.249 423.248C259.233 427.965 257.646 429.533 252.821 429.537C226.229 429.555 199.634 429.527 173.041 429.444C167.226 429.426 165.053 427.079 165.027 420.879C164.966 405.935 165.02 390.992 165.022 376.049C165.027 324.773 165.031 273.497 165.035 221.783V142.317C165.485 141.896 165.933 141.475 166.383 141.054C166.819 142.078 167.055 143.261 167.72 144.105C184.062 164.823 200.516 185.453 216.728 206.271C218.358 208.365 219.329 211.552 219.337 214.235C219.38 227.992 219.409 241.751 219.428 255.508H369.727C369.697 237.923 369.671 220.338 369.641 202.752C369.635 200.281 369.641 197.808 369.641 194.533C366.652 194.533 363.954 194.528 361.256 194.533C352.813 194.549 344.367 194.591 335.924 194.58C330.947 194.573 330.019 193.688 330.007 188.678C329.97 173.855 329.978 159.031 330.008 144.209C330.022 138.003 331.556 136.489 337.854 136.483C357.655 136.462 377.457 136.479 397.257 136.483Z" fill="#5B5B5B" fill-opacity="0.5"/>
</g>
<defs>
<clipPath id="clip0_525_939">
<rect width="584" height="566" fill="white"/>
</clipPath>
</defs>
</svg>
