<svg width="17" height="17" viewBox="0 0 17 17" fill="none" xmlns="http://www.w3.org/2000/svg">
<path fill-rule="evenodd" clip-rule="evenodd" d="M9.00999 8.07753L12.3173 11.3849L11.5965 12.1065L7.98998 8.49998V3.40001H9.00999V8.07753ZM8.49999 17C3.80544 17 0 13.1945 0 8.49998C0 3.80544 3.80544 0 8.49999 0C13.1946 0 17 3.80544 17 8.49998C17 13.1945 13.1946 17 8.49999 17ZM8.49999 15.98C10.4838 15.98 12.3864 15.1919 13.7891 13.7891C15.1919 12.3864 15.98 10.4838 15.98 8.49998C15.98 6.51617 15.1919 4.61359 13.7891 3.21082C12.3864 1.80808 10.4838 1.02 8.49999 1.02C6.51617 1.02 4.61363 1.80808 3.21085 3.21082C1.80808 4.61359 1.02 6.51617 1.02 8.49998C1.02 10.4838 1.80808 12.3864 3.21085 13.7891C4.61363 15.1919 6.51617 15.98 8.49999 15.98Z" fill="white"/>
</svg>
